<?xml version="1.0" encoding="UTF-8"?>
<svg version="1.1" xmlns="http://www.w3.org/2000/svg" width="1078" height="338">
<path d="M0 0 C355.74 0 711.48 0 1078 0 C1078 111.54 1078 223.08 1078 338 C722.26 338 366.52 338 0 338 C0 226.46 0 114.92 0 0 Z " fill="#FDFDFE" transform="translate(0,0)"/>
<path d="M0 0 C3.26665407 0.48101217 5.04542984 0.50137659 8.375 -0.1875 C12.53148537 -0.49538781 13.97160921 0.40041622 17.1015625 2.9921875 C17.64554687 3.51039062 18.18953125 4.02859375 18.75 4.5625 C19.53503906 5.30886719 19.53503906 5.30886719 20.3359375 6.0703125 C22.77423728 8.85886529 23.73517316 10.65806299 23.796875 14.421875 C23.60320304 16.38917443 23.35545651 18.35211142 23.046875 20.3046875 C22.94890625 21.04976562 22.8509375 21.79484375 22.75 22.5625 C23.08 22.8925 23.41 23.2225 23.75 23.5625 C24.19991842 29.18648026 23.33516175 32.6794167 20.75 37.5625 C17.52208445 39.7144437 16.46599191 39.76336443 12.75 39.5625 C13.12125 40.655625 13.4925 41.74875 13.875 42.875 C14.18824219 43.79732422 14.18824219 43.79732422 14.5078125 44.73828125 C18.09774675 50.01029161 25.9810523 50.71007957 31.828125 51.93554688 C36.54903454 53.01216651 39.7963436 54.64560404 43.75 57.5625 C47.94242835 60.52448125 51.85041674 62.58077074 56.6875 64.3125 C57.85152344 64.74046875 59.01554688 65.1684375 60.21484375 65.609375 C65.66517826 67.07885745 69.66764888 67.33796966 74.72265625 64.734375 C76.09486882 63.94235969 77.45813169 63.13465697 78.8125 62.3125 C79.8344043 61.71888672 79.8344043 61.71888672 80.87695312 61.11328125 C82.85202726 59.95593714 84.80362118 58.76736489 86.75 57.5625 C87.84183594 56.88832031 88.93367187 56.21414062 90.05859375 55.51953125 C92.63292209 53.64763212 94.03999704 52.14134386 95.75 49.5 C98.34233021 45.88420436 100.40920239 43.9799033 104.75 42.5625 C109.02752301 42.12971532 111.1345186 42.18434076 114.83984375 44.4609375 C115.77957031 45.27820312 116.71929687 46.09546875 117.6875 46.9375 C118.64527344 47.74960937 119.60304688 48.56171875 120.58984375 49.3984375 C122.75 51.5625 122.75 51.5625 122.75 53.5625 C131.33 55.5425 139.91 57.5225 148.75 59.5625 C148.75 60.5525 148.75 61.5425 148.75 62.5625 C147.76 62.5625 146.77 62.5625 145.75 62.5625 C146.09611328 63.65691406 146.09611328 63.65691406 146.44921875 64.7734375 C148.52017661 71.40377691 150.4667448 78.05398313 152.3125 84.75 C152.52592041 85.51868408 152.73934082 86.28736816 152.95922852 87.0793457 C153.86647047 90.34829687 154.76456985 93.61780066 155.62890625 96.8984375 C155.99822266 98.24808594 155.99822266 98.24808594 156.375 99.625 C156.67277344 100.75615234 156.67277344 100.75615234 156.9765625 101.91015625 C157.23179687 102.45542969 157.48703125 103.00070313 157.75 103.5625 C158.74 103.8925 159.73 104.2225 160.75 104.5625 C160.4651876 107.88531131 159.79262581 109.50655362 157.75 112.1875 C151.43669075 117.18553649 144.56104886 118.19287519 136.62109375 117.98046875 C130.78881042 117.13141526 127.21382959 114.09952107 123.25 109.9375 C121.75 107.5625 121.75 107.5625 121.75 104.5625 C122.74 104.2325 123.73 103.9025 124.75 103.5625 C125.86252418 100.95810412 126.77729381 98.45502386 127.6328125 95.765625 C127.89254852 94.9798407 128.15228455 94.1940564 128.41989136 93.38446045 C129.24951706 90.86400504 130.06201682 88.33836622 130.875 85.8125 C131.42995521 84.12465955 131.98593258 82.43715482 132.54296875 80.75 C133.07384189 79.13051133 133.60381891 77.51072858 134.1328125 75.890625 C134.3807254 75.13211243 134.62863831 74.37359985 134.88406372 73.59210205 C135.11455414 72.87496033 135.34504456 72.1578186 135.58251953 71.41894531 C135.78442902 70.79352844 135.9863385 70.16811157 136.19436646 69.52374268 C136.84246343 67.236128 137.28370484 64.8939758 137.75 62.5625 C124.88 62.5625 112.01 62.5625 98.75 62.5625 C99.9875 66.89375 101.225 71.225 102.5 75.6875 C103.203125 78.1484375 103.90625 80.609375 104.609375 83.0703125 C104.96193359 84.2965332 105.31449219 85.52275391 105.67773438 86.78613281 C106.41460266 89.38127822 107.13598719 91.97662354 107.83789062 94.58105469 C108.18529297 95.85110352 108.53269531 97.12115234 108.890625 98.4296875 C109.20032227 99.5832373 109.51001953 100.73678711 109.82910156 101.92529297 C110.45645087 104.70613802 110.45645087 104.70613802 112.75 105.5625 C112.45359143 109.02059994 111.78653935 110.51760879 109.5625 113.25 C104.26821267 117.6030807 98.83195614 117.92593241 92.25 117.9375 C91.51652344 117.96199219 90.78304687 117.98648438 90.02734375 118.01171875 C84.80012788 118.03977179 81.9152001 116.96304396 77.75 113.5625 C73.75 109.24671053 73.75 109.24671053 73.75 105.5625 C75.07 105.5625 76.39 105.5625 77.75 105.5625 C77.85570312 104.76585938 77.96140625 103.96921875 78.0703125 103.1484375 C78.91384492 98.6980768 80.23694893 94.49384382 81.625 90.1875 C81.88152344 89.37539062 82.13804687 88.56328125 82.40234375 87.7265625 C84.03463256 82.60822976 85.82456816 77.57784641 87.75 72.5625 C86.85796875 73.18898438 85.9659375 73.81546875 85.046875 74.4609375 C83.86468035 75.28659726 82.68238328 76.11211039 81.5 76.9375 C80.91347656 77.35 80.32695312 77.7625 79.72265625 78.1875 C72.6108458 83.14179492 69.24388013 84.01783311 60.75 82.5625 C56.89718112 81.69373365 53.10809895 80.65209645 49.3125 79.5625 C48.33345703 79.28921875 47.35441406 79.0159375 46.34570312 78.734375 C42.78920336 77.73708847 39.25450602 76.73066867 35.75 75.5625 C35.95625 76.42875 36.1625 77.295 36.375 78.1875 C36.75 81.5625 36.75 81.5625 35.8046875 84.15234375 C34.42085343 88.62674059 34.36704372 92.84234855 34.25 97.5 C33.87290556 112.43959444 33.87290556 112.43959444 29.75 116.5625 C29.85268669 120.66996768 31.20668931 123.45643033 33.1875 126.9375 C38.78866276 137.75167848 38.18661425 152.20916576 38.1875 164.125 C38.18956451 164.83317871 38.19162903 165.54135742 38.1937561 166.27099609 C38.18464876 184.09185292 35.82678236 201.6484069 33.10980225 219.23339844 C32.86015534 220.84943338 32.61402226 222.46601353 32.3706665 224.08300781 C31.99202686 226.5881206 31.60141099 229.0910719 31.20703125 231.59375 C31.03321175 232.74937439 31.03321175 232.74937439 30.85588074 233.92834473 C29.97982746 239.33267254 29.97982746 239.33267254 27.75 241.5625 C27.42 239.5825 27.09 237.6025 26.75 235.5625 C26.56993408 236.39104492 26.56993408 236.39104492 26.38623047 237.23632812 C23.70299658 249.4232079 20.50195329 261.01737638 15.75 272.5625 C16.70132813 272.69527344 17.65265625 272.82804687 18.6328125 272.96484375 C21.84422874 273.58056641 22.78812823 274.05566385 24.75 276.5625 C23.35240095 273.01731116 23.35240095 273.01731116 21.75 269.5625 C21.25255461 263.84187806 22.5422853 258.96547249 24.0234375 253.44921875 C24.62352005 251.06501982 25.04120279 248.81165088 25.3125 246.375 C25.456875 245.446875 25.60125 244.51875 25.75 243.5625 C26.41 243.2325 27.07 242.9025 27.75 242.5625 C27.74476318 243.18294189 27.73952637 243.80338379 27.73413086 244.44262695 C27.71334534 247.25340767 27.70033483 250.06417221 27.6875 252.875 C27.67493164 254.33969727 27.67493164 254.33969727 27.66210938 255.83398438 C27.65727539 257.24067383 27.65727539 257.24067383 27.65234375 258.67578125 C27.64448853 259.97189331 27.64448853 259.97189331 27.63647461 261.29418945 C27.65664477 263.72978714 27.65664477 263.72978714 28.75 266.5625 C29.12215392 270.07362469 29.26132725 273.59919613 29.4375 277.125 C29.49744141 278.09630859 29.55738281 279.06761719 29.61914062 280.06835938 C29.66619141 280.99583984 29.71324219 281.92332031 29.76171875 282.87890625 C29.83072388 284.15423218 29.83072388 284.15423218 29.90112305 285.45532227 C29.75 287.5625 29.75 287.5625 27.75 289.5625 C25.40234375 289.79296875 25.40234375 289.79296875 22.6875 289.75 C21.78902344 289.74355469 20.89054687 289.73710937 19.96484375 289.73046875 C17.75 289.5625 17.75 289.5625 16.75 288.5625 C8.45624655 287.90970134 1.51720873 288.11669827 -6.10546875 291.65625 C-9.32434518 293.01650379 -11.82368647 293.09996095 -15.25 292.5625 C-18.1875 290.5625 -18.1875 290.5625 -20.25 288.5625 C-19.92 287.304375 -19.59 286.04625 -19.25 284.75 C-16.9205653 273.83475273 -18.32451577 266.82229943 -24 257.25 C-25.2059019 255.12379588 -26.41162743 252.99749171 -27.6171875 250.87109375 C-28.22916992 249.81132324 -28.84115234 248.75155273 -29.47167969 247.65966797 C-32.0985231 243.08469054 -34.61155864 238.45042328 -37.125 233.8125 C-38.11325687 232.00259085 -39.10153871 230.19269534 -40.08984375 228.3828125 C-44.29362519 220.65831407 -48.43742684 212.90157123 -52.57983398 205.14404297 C-55.72649222 199.25422891 -58.89063036 193.37491032 -62.09375 187.515625 C-62.69904541 186.40687012 -63.30434082 185.29811523 -63.92797852 184.15576172 C-65.07856352 182.05127836 -66.23256001 179.94865565 -67.39038086 177.84814453 C-68.15427124 176.44991455 -68.15427124 176.44991455 -68.93359375 175.0234375 C-69.38275146 174.20665527 -69.83190918 173.38987305 -70.29467773 172.54833984 C-71.25 170.5625 -71.25 170.5625 -71.25 168.5625 C-72.66791408 169.01695964 -74.08428046 169.47624944 -75.5 169.9375 C-76.28890625 170.19273437 -77.0778125 170.44796875 -77.890625 170.7109375 C-80.25248856 171.50362701 -80.25248856 171.50362701 -82.359375 172.6640625 C-84.25 173.5625 -84.25 173.5625 -87.25 173.5625 C-85.7221586 169.88560696 -83.49372494 167.66051192 -80.625 164.9375 C-79.12941162 163.51739873 -77.66113602 162.06655032 -76.25 160.5625 C-76.25 159.9025 -76.25 159.2425 -76.25 158.5625 C-77.343125 158.294375 -78.43625 158.02625 -79.5625 157.75 C-84.48754452 156.16396871 -84.48754452 156.16396871 -86.25 153.5625 C-86.57621115 150.83733784 -86.76150688 148.29184598 -86.8125 145.5625 C-86.84950538 139.76776304 -86.84950538 139.76776304 -89.25 134.5625 C-90.24 134.2325 -91.23 133.9025 -92.25 133.5625 C-92.60882213 130.33310081 -92.52258004 128.95040237 -90.625 126.25 C-87.64542581 124.13293413 -85.82763189 124.23726074 -82.25 124.5625 C-80.93 127.8625 -79.61 131.1625 -78.25 134.5625 C-72.68862692 133.45022538 -71.67779575 132.86921774 -68.25 128.5625 C-67.65026224 127.08061193 -67.09444029 125.58059979 -66.5703125 124.0703125 C-64.16085289 117.86082301 -60.51327085 112.78728507 -56.6875 107.375 C-51.17752736 99.37363734 -46.41054565 91.4017733 -42.375 82.5625 C-39.20654859 75.6332422 -35.96794718 68.88759247 -32 62.375 C-31.62375488 61.73369141 -31.24750977 61.09238281 -30.85986328 60.43164062 C-27.01229402 54.32226818 -21.99435895 51.73760741 -15.0625 50.0625 C-11.14579129 48.95534526 -8.61682581 48.06128598 -6.25 44.5625 C-5.45318682 41.92065459 -5.45318682 41.92065459 -5.25 39.5625 C-6.1575 39.624375 -7.065 39.68625 -8 39.75 C-11.57610265 39.54368639 -12.75548587 39.05701413 -15.25 36.5625 C-16.25496852 33.54759443 -16.35335303 31.52068308 -16.3125 28.375 C-16.30347656 27.47394531 -16.29445313 26.57289062 -16.28515625 25.64453125 C-16.27355469 24.95746094 -16.26195312 24.27039063 -16.25 23.5625 C-12.68072615 22.37274205 -9.45053028 22.43771845 -5.73828125 22.46484375 C-5.01005661 22.4662587 -4.28183197 22.46767365 -3.53153992 22.46913147 C-1.20848461 22.47472341 1.11447388 22.48727438 3.4375 22.5 C5.01367048 22.50501604 6.58984248 22.50957877 8.16601562 22.51367188 C12.02738098 22.5246902 15.88867408 22.54194926 19.75 22.5625 C20.08 20.2525 20.41 17.9425 20.75 15.5625 C11.38914824 13.29810389 2.30650317 13.36083874 -7.25 13.5625 C-2.3 14.0575 -2.3 14.0575 2.75 14.5625 C2.75 14.8925 2.75 15.2225 2.75 15.5625 C1.41195312 15.76166016 1.41195312 15.76166016 0.046875 15.96484375 C-1.12359375 16.14144531 -2.2940625 16.31804688 -3.5 16.5 C-4.66015625 16.67402344 -5.8203125 16.84804688 -7.015625 17.02734375 C-8.08296875 17.20394531 -9.1503125 17.38054688 -10.25 17.5625 C-11.00796875 17.68753906 -11.7659375 17.81257813 -12.546875 17.94140625 C-14.64695909 18.51698596 -14.64695909 18.51698596 -16.25 21.5625 C-17.10110208 16.62400646 -17.21955861 13.00287308 -14.3515625 8.7421875 C-5.61772391 -0.95265598 -5.61772391 -0.95265598 0 0 Z " fill="#070707" transform="translate(164.25,5.4375)"/>
<path d="M0 0 C0.33 0.33 0.66 0.66 1 1 C0.82102923 10.40284873 -0.54813437 19.72497491 -2 29 C-1.42894531 28.566875 -0.85789062 28.13375 -0.26953125 27.6875 C6.71269358 22.89207691 12.60419499 21.81685133 21 23 C24.86102872 24.51920202 26.29857029 26.17178316 28 30 C28.81520764 35.40075062 27.61498805 38.74647892 24.63671875 43.1328125 C21.94008227 46.20916629 18.7053601 48.2986426 15 50 C14.34 50 13.68 50 13 50 C13.433125 50.84304687 13.86625 51.68609375 14.3125 52.5546875 C14.869375 53.65039062 15.42625 54.74609375 16 55.875 C16.556875 56.96554688 17.11375 58.05609375 17.6875 59.1796875 C19 62 19 62 19 64 C21.31 64.66 23.62 65.32 26 66 C26 66.66 26 67.32 26 68 C29.60790134 66.5360113 29.90868586 66.21459973 31.55078125 62.35546875 C33.38428811 56.14240048 34.59796342 49.77982621 35.78979492 43.41821289 C36.18396592 41.33121174 36.59827911 39.24888202 37.01367188 37.16601562 C39.57454205 24.13937157 39.57454205 24.13937157 39 11 C37.09855014 9.08408198 37.09855014 9.08408198 35 8 C35 5.6875 35 5.6875 36 3 C42.351105 -0.54196241 49.86144197 -1.34622931 57 0 C61.81527323 2.72218743 63.28956485 5.01908637 64.79296875 10.31640625 C65.28076594 12.39317965 65.74498176 14.47560962 66.1875 16.5625 C66.42146484 17.58408203 66.65542969 18.60566406 66.89648438 19.65820312 C67.36800901 21.71706415 67.83143428 23.77779738 68.28662109 25.84033203 C69.43267271 30.91637584 70.71533021 35.95754447 72 41 C72.66 41 73.32 41 74 41 C74.38220703 40.28046143 74.76441406 39.56092285 75.15820312 38.81958008 C94.2986149 2.85069255 94.2986149 2.85069255 98 1 C100.78441955 0.84870448 103.52712487 0.76861571 106.3125 0.75 C107.07240234 0.729375 107.83230469 0.70875 108.61523438 0.6875 C113.27390828 0.65511999 116.15202788 1.08137843 120 4 C119.65313327 7.12180057 119.07610419 7.93723875 116.59375 9.984375 C112.95400957 14.21612141 112.49734518 18.13829786 111.6875 23.5625 C111.44386719 25.11565918 111.44386719 25.11565918 111.1953125 26.70019531 C109.99292675 35.20530628 109.57871215 43.66591002 109.5 52.25 C109.48155029 53.4572876 109.46310059 54.6645752 109.4440918 55.90844727 C109.452229 57.03694092 109.46036621 58.16543457 109.46875 59.328125 C109.47551758 60.82714355 109.47551758 60.82714355 109.48242188 62.35644531 C110.1326934 65.6777378 111.55173079 66.75676424 114 69 C114.0625 71.5625 114.0625 71.5625 113 74 C108.2853508 78.11424502 102.77522411 77.40815863 96.875 77.3125 C95.87339844 77.31572266 94.87179687 77.31894531 93.83984375 77.32226562 C86.40102223 77.26734815 86.40102223 77.26734815 83 75 C82.5 72.0625 82.5 72.0625 83 69 C84.20076172 68.319375 84.20076172 68.319375 85.42578125 67.625 C88.14002142 66.23452021 88.14002142 66.23452021 89.07421875 63.71484375 C91.82658301 51.25031517 93.19433396 38.75960231 93 26 C92.69932617 26.58676514 92.39865234 27.17353027 92.08886719 27.77807617 C86.37574286 38.89880438 80.57039858 49.95148972 74.375 60.8125 C73.61268066 62.15380981 73.61268066 62.15380981 72.83496094 63.5222168 C69.25605042 69.74394958 69.25605042 69.74394958 67 72 C64.375 71.625 64.375 71.625 62 71 C59.0928445 62.97198344 57.26117958 54.76188835 55.4375 46.4375 C54.98013081 44.36879518 54.52139968 42.30039955 54.06178284 40.23219299 C53.64614977 38.35901634 53.23397443 36.48507342 52.82202148 34.61108398 C51.93730213 30.72457257 50.97890276 26.86375393 50 23 C49.13676796 27.83654831 48.28261007 32.67458299 47.43652344 37.51416016 C47.14794742 39.15749407 46.85697273 40.80040877 46.56347656 42.44287109 C46.14003719 44.81499574 45.72548291 47.18853532 45.3125 49.5625 C45.11563599 50.64893799 45.11563599 50.64893799 44.91479492 51.75732422 C44.08885025 56.57118014 43.71877711 61.11308907 44 66 C45.84188612 68.05270463 45.84188612 68.05270463 48 69 C47.6875 71.375 47.6875 71.375 47 74 C43.16405456 76.55729696 40.00351901 76.29474578 35.5625 76.25 C34.4168457 76.26160156 34.4168457 76.26160156 33.24804688 76.2734375 C29.1941948 76.25932487 26.60279821 75.97766966 23 74 C21.63875 74.680625 21.63875 74.680625 20.25 75.375 C15.98010591 77.50994704 13.73748102 77.53487689 9 77 C4.57830462 73.59740013 3.10705718 68.89926233 1.20117188 63.86914062 C0.54236764 62.21426632 -0.22255866 60.60256575 -1 59 C-2.485 58.505 -2.485 58.505 -4 58 C-4.08636719 58.96421875 -4.17273438 59.9284375 -4.26171875 60.921875 C-4.40222656 62.18515625 -4.54273438 63.4484375 -4.6875 64.75 C-4.81511719 66.00296875 -4.94273437 67.2559375 -5.07421875 68.546875 C-6.17827831 72.66497056 -7.43272785 73.78470771 -11 76 C-14.95283615 77.24826405 -18.87758742 77.15855433 -23 77 C-24.62545162 75.37454838 -24.21020748 73.62327727 -24.25 71.375 C-24.19292778 64.05073235 -22.55982845 57.12627508 -21 50 C-18.56180808 37.93407589 -17.83826489 26.30983921 -18 14 C-19.98 13.01 -21.96 12.02 -24 11 C-23.62459458 8.51492186 -23.3280083 7.29610724 -21.43359375 5.5859375 C-14.47828396 1.36647363 -8.28877803 -0.50747621 0 0 Z " fill="#055DE0" transform="translate(526,127)"/>
<path d="M0 0 C2 2 2 2 2.24804688 3.84985352 C2.17527355 9.35576203 1.53751795 14.53620029 0.5 19.9375 C-1.61384845 31.01679224 -1.61384845 31.01679224 0 42 C3.37436186 42.33380814 3.37436186 42.33380814 7 42 C13.41271891 35.2190867 13.49872899 24.1181801 14.26586914 15.28271484 C14.64100748 11.2124417 15.05512197 7.67519656 17 4 C21.9357906 0.42155182 27.12121935 0.4243002 33 1 C33.495 1.495 33.495 1.495 34 2 C33.95084214 8.79607428 32.78197646 15.42690901 31.4375 22.0625 C30.16896933 28.3705844 29.32623618 34.56037273 30 41 C31.14738914 42.34371775 31.14738914 42.34371775 34.1875 42.5 C38.21899211 41.97127972 38.71177899 41.7810709 41.25 38.9375 C47.29242368 30.79476863 47.73364419 24.04619223 47 14 C46.56134279 11.7816809 46.56134279 11.7816809 45.9375 9.9375 C44.92491483 6.76473314 44.98545605 5.13586313 46 2 C47 1 47 1 50.8125 0.6875 C53.94873125 0.7268434 54.79654496 0.85392972 57.4375 2.75 C58.96735244 4.95298751 59.44338952 6.42770302 60 9 C60.45890625 8.59007812 60.9178125 8.18015625 61.390625 7.7578125 C62.00421875 7.21898437 62.6178125 6.68015625 63.25 6.125 C63.85328125 5.59132812 64.4565625 5.05765625 65.078125 4.5078125 C68.20720237 2.05288595 70.46735906 1.06779067 74.4375 0.5625 C79.01458681 1.12459838 80.02162111 2.56304531 83 6 C89.17598648 16.6524386 91.59554085 29.14501752 94.4309082 40.99731445 C94.81906447 42.981363 94.81906447 42.981363 96 44 C100.04844458 33.2860806 103.59489569 23.80755976 99 12.625 C98.443125 11.46871094 98.443125 11.46871094 97.875 10.2890625 C96.86343088 7.64272543 96.62433053 5.80812927 97 3 C100.7205836 0.51961093 102.59796571 0.53662797 107 1 C109.36497439 2.86708505 110.66030715 4.32061431 112 7 C113.44522084 27.54108963 107.53354252 47.19923566 94 62.953125 C90.92439844 66.10081097 87.71706384 68.65392421 84 71 C83.39800781 71.4125 82.79601562 71.825 82.17578125 72.25 C76.21335484 75.84995557 69.78876684 75.74754667 63 75 C59.03328406 73.66650826 56.47913739 72.45308423 54 69 C52.81490908 65.22925616 52.26095978 61.76803881 53.81640625 58.046875 C55 56.375 55 56.375 58 54 C61.6875 54 61.6875 54 65 55 C67.39763185 57.39763185 67.34280586 58.33273498 67.625 61.625 C67.73714844 62.85089844 67.73714844 62.85089844 67.8515625 64.1015625 C67.92503906 65.04128906 67.92503906 65.04128906 68 66 C71.83473284 66.35671933 73.55342875 66.29771416 76.8125 64.125 C79.93128206 61.095326 80.24262942 59.25172164 80.4375 55 C80.33676692 43.02715393 74.61697597 24.61697597 66 16 C64.01178687 15.60235737 62.01055661 15.26224651 60 15 C59.85304688 16.09957031 59.70609375 17.19914062 59.5546875 18.33203125 C57.6939937 31.06119623 54.66243576 40.93545479 44.2734375 49.33984375 C37.61824847 54.19973265 32.53986118 55.75407677 24.14453125 55.5390625 C19.3557711 54.71813219 16.35543543 52.40612177 13 49 C12.42894531 49.433125 11.85789062 49.86625 11.26953125 50.3125 C4.26249565 55.12496324 -1.57895733 56.29122654 -10 55 C-14.15829021 53.20763353 -15.49775501 51.80359199 -17.875 48 C-21.56232844 37.63620703 -18.32523306 24.64919424 -17 14 C-18.4540625 13.62875 -18.4540625 13.62875 -19.9375 13.25 C-20.948125 12.8375 -21.95875 12.425 -23 12 C-23.875 9.875 -23.875 9.875 -24 8 C-16.61899467 2.91173202 -9.21540378 -0.94034732 0 0 Z " fill="#055DE0" transform="translate(838,149)"/>
<path d="M0 0 C0.87488571 -0.0127597 1.74977142 -0.02551941 2.65116882 -0.03866577 C3.5949086 -0.04089142 4.53864838 -0.04311707 5.51098633 -0.04541016 C6.97439201 -0.05539536 6.97439201 -0.05539536 8.46736145 -0.06558228 C10.53437413 -0.07571292 12.60141955 -0.08039917 14.66845703 -0.08007812 C17.8137908 -0.0844322 20.95769954 -0.12069479 24.1027832 -0.15869141 C26.11384613 -0.16456347 28.1249157 -0.16853026 30.13598633 -0.17041016 C31.06960495 -0.18478119 32.00322357 -0.19915222 32.96513367 -0.21395874 C39.0105352 -0.17219254 43.62152423 0.82149545 48.65551758 4.29052734 C53.38509761 9.38392122 54.0078604 12.73055771 53.93676758 19.52880859 C53.42427243 24.56122619 50.86949729 27.17238813 47.28051758 30.47802734 C44.51175326 32.38979318 41.70358868 33.87281986 38.65551758 35.29052734 C39.24719727 35.58185547 39.83887695 35.87318359 40.44848633 36.17333984 C46.63436539 39.38232768 51.35448785 42.38743817 53.65551758 49.29052734 C54.39770428 56.14054559 53.71286865 61.61287048 49.65551758 67.29052734 C43.9563244 72.6974542 38.46607314 75.4015984 30.65917969 75.43579102 C29.66812729 75.44217087 28.67707489 75.44855072 27.6559906 75.4551239 C26.59235794 75.45623672 25.52872528 75.45734955 24.43286133 75.45849609 C23.33583389 75.46182449 22.23880646 75.46515289 21.10853577 75.46858215 C18.79111144 75.47364178 16.47367984 75.47599078 14.15625 75.47583008 C10.60315049 75.4780211 7.05035922 75.49619961 3.49731445 75.51513672 C1.24666448 75.51806987 -1.00398698 75.52005519 -3.25463867 75.52099609 C-4.85312401 75.53177437 -4.85312401 75.53177437 -6.48390198 75.54277039 C-7.96575233 75.53815544 -7.96575233 75.53815544 -9.47753906 75.53344727 C-10.78181602 75.53558479 -10.78181602 75.53558479 -12.11244202 75.5377655 C-14.34448242 75.29052734 -14.34448242 75.29052734 -17.34448242 73.29052734 C-17.21948242 71.04052734 -17.21948242 71.04052734 -16.34448242 68.29052734 C-15.39573242 67.81615234 -14.44698242 67.34177734 -13.46948242 66.85302734 C-11.0859681 65.37751848 -10.41225184 64.47316018 -9.42260742 61.80615234 C-8.76043716 58.78959892 -8.207781 55.77393874 -7.73168945 52.72265625 C-7.28371172 49.90881375 -6.78060971 47.1068493 -6.27807617 44.30224609 C-2.68668951 27.83276671 -2.68668951 27.83276671 -3.34448242 11.29052734 C-5.76165715 8.9190127 -5.76165715 8.9190127 -8.34448242 7.29052734 C-8.03198242 4.91552734 -8.03198242 4.91552734 -7.34448242 2.29052734 C-4.23964446 0.22063537 -3.52643578 0.03497674 0 0 Z " fill="#045CE0" transform="translate(334.344482421875,127.70947265625)"/>
<path d="M0 0 C1.50998663 3.01997326 1.13162799 5.83042159 1.125 9.1875 C1.12886719 11.12689453 1.12886719 11.12689453 1.1328125 13.10546875 C1.00529215 16.84481562 0.60205223 20.31601375 0 24 C0.45375 23.278125 0.9075 22.55625 1.375 21.8125 C5.60378281 17.28166127 11.16777384 14.94407539 17 13 C19.39490986 12.93029948 21.79167691 12.91551997 24.1875 12.9375 C25.45980469 12.94652344 26.73210937 12.95554688 28.04296875 12.96484375 C29.50669922 12.98224609 29.50669922 12.98224609 31 13 C29.03924755 19.45414347 26.49543133 23.76412927 20.734375 27.44921875 C13.64493904 31.16114041 6.09357579 34.27217335 -2 34 C-2.33 33.34 -2.66 32.68 -3 32 C-4.65 33.65 -6.3 35.3 -8 37 C-1.4 37.33 5.2 37.66 12 38 C10.64707508 44.76462462 7.44266874 47.04606124 2 51 C-4.98239002 55.0867518 -12.02003539 56.96584598 -20 58 C-18.02 58.99 -16.04 59.98 -14 61 C-15.39197329 64.38256721 -16.8025496 65.83688682 -19.9375 67.6875 C-20.62714844 68.10386719 -21.31679687 68.52023437 -22.02734375 68.94921875 C-26.13690281 71.138271 -30.14016352 71.30350138 -34.6875 71.5625 C-35.7403418 71.62727539 -35.7403418 71.62727539 -36.81445312 71.69335938 C-38.54275206 71.7991736 -40.2713511 71.90006581 -42 72 C-41.67 73.32 -41.34 74.64 -41 76 C-48.82893203 81.05092389 -55.77472958 82.17029145 -65 81 C-69.82095267 79.65563577 -73.84449373 77.77033751 -78 75 C-78 77.64 -78 80.28 -78 83 C-79.65 83 -81.3 83 -83 83 C-83 75.41 -83 67.82 -83 60 C-81.35 60 -79.7 60 -78 60 C-78 64.29 -78 68.58 -78 73 C-75.36 72.67 -72.72 72.34 -70 72 C-71.98 71.67 -73.96 71.34 -76 71 C-75.328125 69.078125 -75.328125 69.078125 -74 67 C-71.609375 66.234375 -71.609375 66.234375 -68.75 65.75 C-63.1570984 64.44915429 -60.97424222 62.41043502 -57.92578125 57.64453125 C-57.62027344 57.10183594 -57.31476563 56.55914062 -57 56 C-57.39832031 56.5053125 -57.79664063 57.010625 -58.20703125 57.53125 C-59.00173828 58.50578125 -59.00173828 58.50578125 -59.8125 59.5 C-60.33457031 60.1496875 -60.85664063 60.799375 -61.39453125 61.46875 C-63 63 -63 63 -66 63 C-65.63704373 56.1038308 -61.8674774 50.01579519 -57.1875 45.09375 C-52.26454446 40.76494426 -48.71144698 38.69493423 -42 39 C-41.505 41.475 -41.505 41.475 -41 44 C-40.69707031 43.41992188 -40.39414063 42.83984375 -40.08203125 42.2421875 C-35.33839949 33.39713873 -30.723449 27.43359293 -21 24 C-18.1875 23.8671875 -18.1875 23.8671875 -16 24 C-15.896875 22.989375 -15.79375 21.97875 -15.6875 20.9375 C-14.36802681 13.38051716 -11.08540985 6.85964815 -5.4375 1.625 C-3 0 -3 0 0 0 Z " fill="#CCCCCC" transform="translate(265,242)"/>
<path d="M0 0 C5.42087622 1.35521905 8.48575413 3.6436067 11.4609375 8.2734375 C14.27095827 13.55237825 15.66873738 18.03727292 16 24 C17.4540625 24.0928125 17.4540625 24.0928125 18.9375 24.1875 C26.15192568 25.2805948 31.45680912 28.90807305 35.9375 34.5625 C37.92460065 37.27303681 39.57200308 39.95774569 41 43 C41.33 41.68 41.66 40.36 42 39 C48.88877382 39.43054836 54.02355172 41.7419958 58.734375 46.8984375 C62.5899061 51.88008907 66 56.53919333 66 63 C65.01 63 64.02 63 63 63 C62.34 62.34 61.68 61.68 61 61 C63.30874248 64.46311372 64.01453002 64.56015245 67.875 65.5625 C71.14727388 66.42696638 74.01940271 67.38493217 77 69 C77 66.69 77 64.38 77 62 C78.65614657 61.61781233 80.32457024 61.28604898 82 61 C83 62 83 62 83.11352539 63.94946289 C83.10567017 65.1984436 83.10567017 65.1984436 83.09765625 66.47265625 C83.09282227 67.82133789 83.09282227 67.82133789 83.08789062 69.19726562 C83.07532227 70.61555664 83.07532227 70.61555664 83.0625 72.0625 C83.05798828 73.01189453 83.05347656 73.96128906 83.04882812 74.93945312 C83.0370011 77.29303065 83.02052025 79.64648477 83 82 C81.34385343 82.38218767 79.67542976 82.71395102 78 83 C77 82 77 82 76.9375 78.9375 C76.958125 77.968125 76.97875 76.99875 77 76 C76.11248047 76.41572266 76.11248047 76.41572266 75.20703125 76.83984375 C74.02173828 77.38318359 74.02173828 77.38318359 72.8125 77.9375 C72.03519531 78.29714844 71.25789063 78.65679687 70.45703125 79.02734375 C63.32276011 81.85156237 54.73606129 82.27331818 47.5 79.625 C44 78 44 78 41 76 C41.495 74.515 41.495 74.515 42 73 C42.66 73 43.32 73 44 73 C44 72.34 44 71.68 44 71 C42.7934375 71.04640625 41.586875 71.0928125 40.34375 71.140625 C38.72919164 71.17817287 37.11460622 71.21456977 35.5 71.25 C34.70851563 71.28351563 33.91703125 71.31703125 33.1015625 71.3515625 C25.96422674 71.468568 20.81830806 69.53647725 15.5 64.75 C15.005 64.1725 14.51 63.595 14 63 C14.33 62.01 14.66 61.02 15 60 C17.5625 58.8125 17.5625 58.8125 20 58 C19.10539062 57.84144531 18.21078125 57.68289063 17.2890625 57.51953125 C5.39654491 55.22470643 -2.59001225 52.36413601 -10.6015625 43.0859375 C-12 41 -12 41 -12 38 C-4.74 37.67 2.52 37.34 10 37 C4.95106642 30.55306485 4.95106642 30.55306485 -1.3125 27.5625 C-2.17488281 27.25441406 -3.03726563 26.94632812 -3.92578125 26.62890625 C-5.79825224 25.95164042 -5.79825224 25.95164042 -7 26 C-4.36 27.32 -1.72 28.64 1 30 C1 30.99 1 31.98 1 33 C-8.97377797 33.54402425 -17.408368 30.62490732 -25 24 C-31 16.66666667 -31 16.66666667 -31 13 C-17.94722196 12.38494763 -10.62901146 14.02824141 0 22 C0 14.74 0 7.48 0 0 Z " fill="#D0D0D0" transform="translate(75,242)"/>
<path d="M0 0 C0.66 0 1.32 0 2 0 C4.45105362 7.27608371 5.41792538 14.05634857 5.44506836 21.69140625 C5.46011488 23.91937539 5.46011488 23.91937539 6 27 C7.90739352 28.55329075 7.90739352 28.55329075 10 29 C9.34849837 34.8751486 6.08738448 39.62394701 3.23828125 44.67382812 C2.83996094 45.39892578 2.44164062 46.12402344 2.03125 46.87109375 C1.48307617 47.84453735 1.48307617 47.84453735 0.92382812 48.83764648 C-1.2209239 53.85774921 -1.13697813 59.12186786 -1.16796875 64.50390625 C-1.17425293 65.57155968 -1.17425293 65.57155968 -1.18066406 66.66078186 C-1.19041733 68.96141122 -1.19045652 71.26185342 -1.1875 73.5625 C-1.18722809 74.34800232 -1.18695618 75.13350464 -1.18667603 75.94281006 C-1.15982007 92.78729634 0.08224228 109.09818477 3.20703125 125.66015625 C4.12875264 130.58936195 4.88350297 135.54092296 5.625 140.5 C5.7480249 141.31283447 5.8710498 142.12566895 5.99780273 142.96313477 C6.79060558 148.29827659 7.43144767 153.63629873 8 159 C5.18249896 155.79387813 3.42470121 152.79054123 1.79272461 148.86303711 C0.55226733 145.94775239 -0.88453048 143.13994298 -2.3125 140.3125 C-3.01980834 138.90899377 -3.72681433 137.50533516 -4.43359375 136.1015625 C-4.83304199 135.30911133 -5.23249023 134.51666016 -5.64404297 133.70019531 C-7.19908157 130.60355741 -8.74255713 127.50129066 -10.28515625 124.3984375 C-16.36466744 112.17996803 -22.49547468 99.99821358 -28.9140625 87.953125 C-30.37688422 85.1905491 -31.83300043 82.42491836 -33.26171875 79.64453125 C-33.59131592 79.00620361 -33.92091309 78.36787598 -34.26049805 77.71020508 C-35 76 -35 76 -35.1875 73.4375 C-33.59221345 70.16296444 -31.27646308 68.07827189 -28.59375 65.6484375 C-26.75450663 63.98362891 -26.75450663 63.98362891 -26 61 C-27.41719242 61.62380692 -28.8337306 62.2491003 -30.25 62.875 C-31.03890625 63.22304687 -31.8278125 63.57109375 -32.640625 63.9296875 C-34.15305067 64.61578789 -35.64624372 65.34705681 -37.109375 66.1328125 C-39 67 -39 67 -42 67 C-42 66.34 -42 65.68 -42 65 C-41.34 65 -40.68 65 -40 65 C-39.99742188 64.38253906 -39.99484375 63.76507813 -39.9921875 63.12890625 C-39.51503215 52.67920412 -34.19366262 47.01593272 -26.9453125 40.015625 C-22.25353515 35.15426534 -19.20632377 29.51990775 -16.375 23.4375 C-12.39467392 15.17805661 -6.5227104 6.5227104 0 0 Z " fill="#F9F9F9" transform="translate(138,94)"/>
<path d="M0 0 C0.85464844 -0.01417969 1.70929687 -0.02835938 2.58984375 -0.04296875 C5.23090351 0.20319638 6.74283832 0.96336643 9.0625 2.1875 C13.78348621 2.55748572 13.78348621 2.55748572 18.1875 1.125 C20.78049295 -0.17149648 22.34721346 0.38025265 25.0625 1.1875 C25.5575 1.6825 25.5575 1.6825 26.0625 2.1875 C25.94294238 8.71718521 25.34710156 15.22130951 24.0625 21.625 C22.69833686 28.42545506 22.41712983 35.27221828 22.0625 42.1875 C23.7125 42.1875 25.3625 42.1875 27.0625 42.1875 C27.29296875 44.48828125 27.29296875 44.48828125 27.0625 47.1875 C23.73332329 50.84711609 18.8466179 53.92852161 14.0625 55.1875 C10.75 55.3125 10.75 55.3125 8.0625 55.1875 C5.0625 49.4375 5.0625 49.4375 5.0625 47.1875 C4.23105469 47.68121094 3.39960937 48.17492187 2.54296875 48.68359375 C1.45628906 49.32425781 0.36960937 49.96492188 -0.75 50.625 C-1.82894531 51.26308594 -2.90789063 51.90117187 -4.01953125 52.55859375 C-9.55825858 55.65049375 -14.70950552 55.83586893 -20.9375 55.1875 C-25.3967637 52.7720655 -27.0126181 49.79232797 -28.9375 45.1875 C-31.09891741 33.24581851 -28.61149096 23.15330468 -21.9375 13.1875 C-19.15211239 9.43692992 -16.27402557 6.40030238 -12.3125 3.875 C-11.17941406 3.13830078 -11.17941406 3.13830078 -10.0234375 2.38671875 C-6.6224436 0.4314657 -3.85327858 0.02897202 0 0 Z " fill="#055DE0" transform="translate(786.9375,148.8125)"/>
<path d="M0 0 C4.86377857 3.31754715 7.74300526 6.47036288 10 12 C11.27763348 22.35919038 10.21564106 31.16163763 4.08203125 39.65625 C-1.13420427 45.93419717 -6.63192738 51.11773363 -14.97363281 52.2734375 C-22.45916595 52.95055493 -30.32723574 53.39536169 -36.4921875 48.48828125 C-36.98976563 47.99714844 -37.48734375 47.50601563 -38 47 C-38.49757813 46.51917969 -38.99515625 46.03835937 -39.5078125 45.54296875 C-44.87280779 39.73344528 -45.47380324 33.69065657 -45.3046875 26.08984375 C-44.39322219 16.84665063 -39.72013557 10.18252472 -33 4 C-23.42781357 -3.34943153 -10.9875145 -6.20225449 0 0 Z " fill="#045CE0" transform="translate(490,152)"/>
<path d="M0 0 C4.52464252 3.12312801 8.29670874 7.17137622 10.04296875 12.41015625 C11.12260739 24.20418344 9.80823647 32.80729711 2.4375 42.52734375 C-3.51055484 49.11117642 -10.44808245 52.54555826 -19.27099609 53.05273438 C-26.20821054 53.19132802 -31.66343344 52.7594498 -37.22265625 48.19140625 C-43.77723804 41.4596736 -45.34615003 35.50248837 -45.234375 26.25 C-44.49814333 18.71140244 -40.11165045 11.81566399 -34.95703125 6.41015625 C-24.71023666 -1.85459413 -12.47153796 -6.3379947 0 0 Z " fill="#055DE0" transform="translate(433.95703125,151.58984375)"/>
<path d="M0 0 C3.49760135 7.45141157 3.69465822 14.91370736 4 23 C4.433125 22.505 4.86625 22.01 5.3125 21.5 C7 20 7 20 10 20 C12.87713438 28.63140314 10.07398985 35.69839141 6.3125 43.5 C5.879375 44.325 5.44625 45.15 5 46 C5.598125 45.505 6.19625 45.01 6.8125 44.5 C9 43 9 43 12 43 C12.87043404 46.00506992 13.13484254 48.68749206 13.125 51.8125 C13.12242188 52.69164062 13.11984375 53.57078125 13.1171875 54.4765625 C13 57 13 57 12.25 60.6875 C11.89984125 65.32710338 13.50834789 67.11595406 16 71 C17.24685549 74.25815214 16.93215683 77.29645248 16.73168945 80.73706055 C16.23792223 87.26300607 16.23792223 87.26300607 18.44921875 93.20703125 C20.23364784 94.62484807 22.06663721 95.79864539 24 97 C27.90788384 102.47103737 28.1434435 107.16244438 28.0625 113.75 C28.05798828 114.44738281 28.05347656 115.14476562 28.04882812 115.86328125 C28.0371002 117.57555803 28.01916653 119.28779033 28 121 C27.34 121 26.68 121 26 121 C25.67 120.34 25.34 119.68 25 119 C24.34 119.99 23.68 120.98 23 122 C16.42333823 116.70213358 14.18356033 109.0200512 13.25 100.8125 C13.1675 99.554375 13.085 98.29625 13 97 C12.01 97 11.02 97 10 97 C9.67 95.68 9.34 94.36 9 93 C8.01 93.99 8.01 93.99 7 95 C4.69 92.03 2.38 89.06 0 86 C0.66 87.32 1.32 88.64 2 90 C2.38290462 91.99110401 2.72604615 93.99100513 3 96 C-4.24288806 93.10284477 -9.50873908 84.84403455 -12.5625 77.9375 C-14.32860402 72.95884477 -14.40031259 68.22630322 -14 63 C-11.61435923 63.57584432 -9.33317216 64.22227595 -7 65 C-8.9952379 60.13325416 -8.9952379 60.13325416 -11.5625 55.5625 C-14.87069903 49.66527564 -15.42658311 43.61203814 -15 37 C-14 33.5 -14 33.5 -13 31 C-9.52867905 32.40929697 -8.11906726 33.90605083 -6.25 37.125 C-5.82203125 37.84945312 -5.3940625 38.57390625 -4.953125 39.3203125 C-4.63859375 39.87460938 -4.3240625 40.42890625 -4 41 C-4 38.36 -4 35.72 -4 33 C-5.485 33.495 -5.485 33.495 -7 34 C-8.85160075 24.52776145 -10.65099532 11.7292228 -5.125 3.3125 C-2.46213592 0 -2.46213592 0 0 0 Z " fill="#DCDCDC" transform="translate(42,132)"/>
<path d="M0 0 C1.14533203 -0.01611328 2.29066406 -0.03222656 3.47070312 -0.04882812 C5.12295898 -0.04979492 5.12295898 -0.04979492 6.80859375 -0.05078125 C7.81591553 -0.05376221 8.8232373 -0.05674316 9.86108398 -0.05981445 C12.92321243 0.36221409 14.29239998 1.26809232 16.5625 3.3125 C16.4375 5.5625 16.4375 5.5625 15.5625 8.3125 C14.593125 8.869375 13.62375 9.42625 12.625 10 C9.28137936 12.52477477 9.15077248 12.75634047 8.50390625 16.59375 C8.34881592 17.48860107 8.19372559 18.38345215 8.03393555 19.30541992 C7.87836182 20.29775635 7.72278809 21.29009277 7.5625 22.3125 C7.38823486 23.37895752 7.21396973 24.44541504 7.03442383 25.54418945 C6.47463575 29.06750218 5.95243002 32.59486865 5.4375 36.125 C5.25574219 37.30642578 5.07398438 38.48785156 4.88671875 39.70507812 C3.74028466 47.57065035 3.02987334 55.35887356 3.5625 63.3125 C5.525513 65.275513 9.14089194 64.54237489 11.8125 64.5625 C12.48152344 64.583125 13.15054688 64.60375 13.83984375 64.625 C18.29293911 64.65999486 21.06566686 64.09620438 24.5625 61.3125 C26.11420654 59.3836305 26.11420654 59.3836305 27.25 57.25 C28.59237222 54.90194175 29.63395671 53.24104329 31.5625 51.3125 C34.1875 51.6875 34.1875 51.6875 36.5625 52.3125 C37.25678374 60.5050481 35.06350989 66.91794276 31.5625 74.3125 C29.5625 76.3125 29.5625 76.3125 27.36805725 76.53523254 C26.45777267 76.52207504 25.5474881 76.50891754 24.60961914 76.49536133 C23.57837418 76.48487259 22.54712921 76.47438385 21.4846344 76.46357727 C20.36693161 76.44079208 19.24922882 76.4180069 18.09765625 76.39453125 C16.95340683 76.37662033 15.80915741 76.35870941 14.63023376 76.34025574 C12.20660166 76.29900326 9.78305557 76.25240832 7.35961914 76.20092773 C3.6441026 76.12538837 -0.07113615 76.07634698 -3.78710938 76.02929688 C-6.13805111 75.98598845 -8.48896471 75.94111862 -10.83984375 75.89453125 C-12.51336159 75.8755352 -12.51336159 75.8755352 -14.22068787 75.8561554 C-15.25508499 75.82990585 -16.28948212 75.80365631 -17.35522461 75.77661133 C-18.26630478 75.75947586 -19.17738495 75.74234039 -20.11607361 75.72468567 C-22.86951344 75.23579296 -23.80137629 74.55144489 -25.4375 72.3125 C-25.5 69.875 -25.5 69.875 -24.4375 67.3125 C-22.98923828 66.51972656 -22.98923828 66.51972656 -21.51171875 65.7109375 C-17.27579062 62.40616003 -17.01353667 59.50456716 -16.1875 54.375 C-16.0318457 53.51962646 -15.87619141 52.66425293 -15.71582031 51.78295898 C-15.40853961 50.07085148 -15.11238365 48.356705 -14.828125 46.640625 C-14.50459596 44.71239191 -14.1334436 42.79221801 -13.75 40.875 C-12.49633657 34.18879504 -12.18136148 27.53662663 -12.0625 20.75 C-12.03639648 19.87996338 -12.01029297 19.00992676 -11.98339844 18.11352539 C-11.8925938 13.07126085 -11.8925938 13.07126085 -14.46484375 8.88671875 C-15.11582031 8.36722656 -15.76679687 7.84773437 -16.4375 7.3125 C-16.375 4.6875 -16.375 4.6875 -15.4375 2.3125 C-10.67755468 -0.86079688 -5.59576653 -0.015692 0 0 Z " fill="#045CE0" transform="translate(719.4375,127.6875)"/>
<path d="M0 0 C10.74732842 9.49347344 13.74156206 30.73556237 17 44 C17.65043719 42.27255984 18.29514844 40.5429631 18.9375 38.8125 C19.29714844 37.84957031 19.65679688 36.88664062 20.02734375 35.89453125 C22.72146675 27.87708087 23.7155803 18.84013428 19.9375 11.0625 C19.57269531 10.3509375 19.20789063 9.639375 18.83203125 8.90625 C18 7 18 7 18.125 4.0625 C19 2 19 2 21 0 C26.68558952 -0.73362445 26.68558952 -0.73362445 29 0 C33.26174766 4.74859054 33.67547092 8.79370766 33.5625 14.875 C33.5471521 16.12639771 33.5471521 16.12639771 33.53149414 17.40307617 C33.24804284 25.85442169 31.21006634 33.22495605 28 41 C27.50371094 42.21558594 27.00742187 43.43117187 26.49609375 44.68359375 C21.4154255 55.8610639 13.40422444 66.65878096 2 72 C1.24332031 72.3609375 0.48664062 72.721875 -0.29296875 73.09375 C-5.97333428 74.99540195 -13.50497912 75.27376883 -19.17578125 73.20703125 C-21.81666689 71.496681 -23.25460836 69.61808746 -25 67 C-25.65614374 62.42988258 -25.83881203 58.35500405 -23.375 54.375 C-20.27095134 52.57791919 -18.53343747 52.41109375 -15 53 C-12.625 54.4375 -12.625 54.4375 -11 57 C-10.67661084 60.03046934 -10.76656004 62.96528054 -11 66 C-9.741875 65.690625 -8.48375 65.38125 -7.1875 65.0625 C-6.12595703 64.80146484 -6.12595703 64.80146484 -5.04296875 64.53515625 C-3.34316798 64.08989295 -1.66698046 63.55566015 0 63 C3.25586414 56.81385812 2.19487173 50.17016396 0.33740234 43.6875 C-0.48475283 41.06792259 -1.35351123 38.47006134 -2.25 35.875 C-2.53738037 35.0401709 -2.82476074 34.2053418 -3.12084961 33.34521484 C-5.45038502 26.89370476 -8.08111662 19.91888338 -13 15 C-15.31765729 14.28072705 -17.65095874 13.6090107 -20 13 C-19.91740329 10.19171195 -19.44224482 8.47599508 -17.515625 6.40234375 C-12.4608399 2.00640885 -7.06307612 -2.12166046 0 0 Z " fill="#055DE0" transform="translate(661,150)"/>
<path d="M0 0 C2.91317457 2.3156003 3.81358665 4.03990114 4.51953125 7.67578125 C4.95231685 13.44870109 4.42896993 17.36178115 0.75 21.9375 C-5.91079187 28.38721044 -13.53479576 31.26903206 -22.75 31.3125 C-24.50133521 31.23391445 -26.25245615 31.13943169 -28 31 C-27.54857119 32.29409592 -27.08858979 33.58521059 -26.625 34.875 C-26.36976563 35.59429687 -26.11453125 36.31359375 -25.8515625 37.0546875 C-25.06122217 39.18157994 -25.06122217 39.18157994 -23 41 C-18.85861273 41.91057986 -15.26196303 41.70935183 -11.546875 39.62109375 C-10.0146649 38.52774515 -8.51045347 37.39364295 -7.04296875 36.21484375 C-5 35 -5 35 -2.80078125 35.25390625 C-1 36 -1 36 0 37 C0.27734375 39.37109375 0.27734375 39.37109375 0 42 C-2.22803846 44.58015353 -5.11172882 46.21922469 -8 48 C-8.9590625 48.62841797 -8.9590625 48.62841797 -9.9375 49.26953125 C-15.0321386 52.08551313 -19.98235002 52.40856155 -25.6875 52.5 C-26.77502563 52.52779541 -26.77502563 52.52779541 -27.88452148 52.55615234 C-33.79907949 52.48691271 -37.35085687 50.57363311 -41.64453125 46.40234375 C-46.84488377 39.88016249 -46.7838409 33.09361279 -46.28271484 25.06835938 C-45.19740116 17.12813698 -39.74201829 8.85952087 -33.44921875 4.05078125 C-23.12542113 -2.44722433 -11.34793772 -6.71612641 0 0 Z " fill="#045DE0" transform="translate(1000,152)"/>
<path d="M0 0 C2.70361469 3.24433763 3 4.70892052 3 9 C3.66 9 4.32 9 5 9 C5.226875 8.4225 5.45375 7.845 5.6875 7.25 C7.48091087 4.17558136 8.89694228 2.810117 12 1 C16.77643328 0.21440242 20.6835049 0.42074216 25.125 2.375 C27.60923586 5.8529302 27.64994875 8.37953142 27.4140625 12.58203125 C26.80688145 16.12773948 25.85502046 17.80383042 23 20 C19.5 20.625 19.5 20.625 16 20 C13.5625 17.5 13.5625 17.5 12 15 C10.35 15.33 8.7 15.66 7 16 C4.25865899 22.77687736 3.96770969 30.02942462 3.23242188 37.234375 C2.06650535 47.59235165 2.06650535 47.59235165 -1 52 C-4.11062375 54.32632118 -6.94937885 54.21549098 -10.75 54.125 C-12.22726562 54.09792969 -12.22726562 54.09792969 -13.734375 54.0703125 C-14.48203125 54.04710937 -15.2296875 54.02390625 -16 54 C-16.35601861 47.65759443 -15.89314277 41.957007 -14.5 35.75 C-12.81420824 28.04917659 -12.69856998 20.87067273 -13 13 C-15.475 12.01 -15.475 12.01 -18 11 C-18 9.35 -18 7.7 -18 6 C-16.13308826 4.98498002 -14.25604656 3.98857921 -12.375 3 C-11.33085938 2.443125 -10.28671875 1.88625 -9.2109375 1.3125 C-5.81844001 -0.0742143 -3.62391056 -0.43736852 0 0 Z " fill="#075EE0" transform="translate(1024,150)"/>
<path d="M0 0 C0.99 0.33 1.98 0.66 3 1 C3 2.98 3 4.96 3 7 C3.66 7 4.32 7 5 7 C5 5.35 5 3.7 5 2 C7.15038226 5.22557338 7.80719068 7.6285735 8.75 11.375 C9.09631267 12.70868294 9.44405807 14.04199438 9.79296875 15.375 C9.98294434 16.10460937 10.17291992 16.83421875 10.36865234 17.5859375 C11.572752 22.19001229 12.80313031 26.78573169 14.0625 31.375 C14.30774414 32.30876465 14.55298828 33.2425293 14.80566406 34.20458984 C15.04639648 35.07293457 15.28712891 35.9412793 15.53515625 36.8359375 C15.745354 37.61501465 15.95555176 38.3940918 16.17211914 39.19677734 C16.58192017 40.08937256 16.58192017 40.08937256 17 41 C17.99 41.33 18.98 41.66 20 42 C19.7151876 45.32281131 19.04262581 46.94405362 17 49.625 C10.68669075 54.62303649 3.81104886 55.63037519 -4.12890625 55.41796875 C-9.96118958 54.56891526 -13.53617041 51.53702107 -17.5 47.375 C-19 45 -19 45 -19 42 C-17.515 41.505 -17.515 41.505 -16 41 C-14.94825355 38.55213667 -14.09603184 36.21520105 -13.30078125 33.68359375 C-13.0608696 32.95253922 -12.82095795 32.22148468 -12.57377625 31.46827698 C-11.80869751 29.1281932 -11.06047346 26.78310065 -10.3125 24.4375 C-9.79732338 22.85185592 -9.28106089 21.26656419 -8.76367188 19.68164062 C-7.49646967 15.7917399 -6.24435895 11.8972653 -5 8 C-4.34 8.33 -3.68 8.66 -3 9 C-2.01 6.03 -1.02 3.06 0 0 Z " fill="#0C0C0C" transform="translate(305,68)"/>
<path d="M0 0 C1.02373532 10.86296926 -1.56989431 17.47164365 -8.33203125 25.91015625 C-10.48207028 28.37974874 -12.59245588 30.78024432 -15 33 C-15.66 33 -16.32 33 -17 33 C-16.125 27.25 -16.125 27.25 -15 25 C-15.37511719 25.55429688 -15.75023437 26.10859375 -16.13671875 26.6796875 C-21.21968366 33.87521968 -21.21968366 33.87521968 -26 35 C-26.33 34.34 -26.66 33.68 -27 33 C-27.09796875 33.99 -27.1959375 34.98 -27.296875 36 C-28.09205963 43.29611916 -28.81389497 49.78064395 -33 56 C-35.75 58 -35.75 58 -38 59 C-38.33 58.34 -38.66 57.68 -39 57 C-40.485 57.495 -40.485 57.495 -42 58 C-42.30748398 47.75053386 -42.21721005 39.92758507 -35.59765625 31.6328125 C-33.60928458 29.60068693 -31.76270182 28.65004749 -29 28 C-29.33 27.030625 -29.66 26.06125 -30 25.0625 C-32.25703102 16.85810985 -31.17290534 11.31555225 -27.09375 3.87109375 C-26.7328125 3.25363281 -26.371875 2.63617188 -26 2 C-21.36231469 5.6438956 -19.92630075 10.63094897 -18 16 C-17.67128906 15.5153125 -17.34257812 15.030625 -17.00390625 14.53125 C-6.69230769 0 -6.69230769 0 0 0 Z " fill="#121212" transform="translate(312,195)"/>
<path d="M0 0 C4.03420177 0.55224572 6.12391234 2.60438981 9.0625 5.3125 C9.91972656 6.09238281 10.77695312 6.87226563 11.66015625 7.67578125 C13.70478044 9.70675186 15.46775965 11.56348665 17 14 C17 14.99 17 15.98 17 17 C17.66 17 18.32 17 19 17 C19.061875 16.01 19.12375 15.02 19.1875 14 C19.82432306 9.28172009 22.30728164 5.8254486 25 2 C28.53855857 5.06675076 29.85518049 7.47347861 31 12 C30.97416125 13.97169529 30.94476851 15.94495516 30.81958008 17.9128418 C30.26856318 24.3422146 30.26856318 24.3422146 32.4453125 30.19921875 C34.23054823 31.62217861 36.06348758 32.79668827 38 34 C41.90788384 39.47103737 42.1434435 44.16244438 42.0625 50.75 C42.05798828 51.44738281 42.05347656 52.14476562 42.04882812 52.86328125 C42.0371002 54.57555803 42.01916653 56.28779033 42 58 C41.34 58 40.68 58 40 58 C39.67 57.34 39.34 56.68 39 56 C38.34 56.99 37.68 57.98 37 59 C30.42333823 53.70213358 28.18356033 46.0200512 27.25 37.8125 C27.1675 36.554375 27.085 35.29625 27 34 C26.01 34 25.02 34 24 34 C23.67 32.68 23.34 31.36 23 30 C22.34 30.66 21.68 31.32 21 32 C18.69 29.03 16.38 26.06 14 23 C14.66 24.32 15.32 25.64 16 27 C16.38290462 28.99110401 16.72604615 30.99100513 17 33 C9.75711194 30.10284477 4.49126092 21.84403455 1.4375 14.9375 C-0.32860402 9.95884477 -0.40031259 5.22630322 0 0 Z " fill="#121212" transform="translate(28,195)"/>
<path d="M0 0 C6.88877382 0.43054836 12.02355172 2.7419958 16.734375 7.8984375 C20.5899061 12.88008907 24 17.53919333 24 24 C23.01 24 22.02 24 21 24 C20.34 23.34 19.68 22.68 19 22 C21.30874248 25.46311372 22.01453002 25.56015245 25.875 26.5625 C29.14727388 27.42696638 32.01940271 28.38493217 35 30 C35 27.69 35 25.38 35 23 C36.65614657 22.61781233 38.32457024 22.28604898 40 22 C41 23 41 23 41.11352539 24.94946289 C41.10828857 25.7821167 41.10305176 26.61477051 41.09765625 27.47265625 C41.09443359 28.37177734 41.09121094 29.27089844 41.08789062 30.19726562 C41.07532227 31.61555664 41.07532227 31.61555664 41.0625 33.0625 C41.05798828 34.01189453 41.05347656 34.96128906 41.04882812 35.93945312 C41.0370011 38.29303065 41.02052025 40.64648477 41 43 C39.34385343 43.38218767 37.67542976 43.71395102 36 44 C35 43 35 43 34.9375 39.9375 C34.958125 38.968125 34.97875 37.99875 35 37 C34.40832031 37.27714844 33.81664062 37.55429687 33.20703125 37.83984375 C32.41683594 38.20207031 31.62664062 38.56429687 30.8125 38.9375 C29.64654297 39.47697266 29.64654297 39.47697266 28.45703125 40.02734375 C21.32276011 42.85156237 12.73606129 43.27331818 5.5 40.625 C2 39 2 39 -1 37 C0.29802151 33.10593548 1.67559288 32.80594008 5.25 30.9375 C6.20390625 30.43089844 7.1578125 29.92429687 8.140625 29.40234375 C10.72521252 28.13476599 13.31158581 27.02532585 16 26 C15.13375 25.505 14.2675 25.01 13.375 24.5 C5.8571531 19.41126872 2.34432819 11.53611264 0 3 C0 2.01 0 1.02 0 0 Z " fill="#181818" transform="translate(117,281)"/>
<path d="M0 0 C-0.29761623 7.88682997 -3.22261272 14.86065178 -8.58984375 20.7421875 C-11.17780975 22.96796996 -13.94600878 24.52543343 -17 26 C-16.20335937 26.31453125 -15.40671875 26.6290625 -14.5859375 26.953125 C-3.36143362 31.48662292 -3.36143362 31.48662292 1 35 C1 35.66 1 36.32 1 37 C-6.82893203 42.05092389 -13.77472958 43.17029145 -23 42 C-27.82095267 40.65563577 -31.84449373 38.77033751 -36 36 C-36 38.64 -36 41.28 -36 44 C-37.65 44 -39.3 44 -41 44 C-41 36.41 -41 28.82 -41 21 C-39.35 21 -37.7 21 -36 21 C-36 25.29 -36 29.58 -36 34 C-33.36 33.67 -30.72 33.34 -28 33 C-29.98 32.67 -31.96 32.34 -34 32 C-33.328125 30.078125 -33.328125 30.078125 -32 28 C-29.609375 27.234375 -29.609375 27.234375 -26.75 26.75 C-21.1570984 25.44915429 -18.97424222 23.41043502 -15.92578125 18.64453125 C-15.62027344 18.10183594 -15.31476563 17.55914062 -15 17 C-15.39832031 17.5053125 -15.79664063 18.010625 -16.20703125 18.53125 C-16.73683594 19.1809375 -17.26664063 19.830625 -17.8125 20.5 C-18.33457031 21.1496875 -18.85664063 21.799375 -19.39453125 22.46875 C-21 24 -21 24 -24 24 C-23.63704373 17.1038308 -19.8674774 11.01579519 -15.1875 6.09375 C-10.26454446 1.76494426 -6.71144698 -0.30506577 0 0 Z " fill="#121212" transform="translate(223,281)"/>
<path d="M0 0 C1.50998663 3.01997326 1.13162799 5.83042159 1.125 9.1875 C1.12886719 11.12689453 1.12886719 11.12689453 1.1328125 13.10546875 C1.00529215 16.84481562 0.60205223 20.31601375 0 24 C0.45375 23.278125 0.9075 22.55625 1.375 21.8125 C5.60378281 17.28166127 11.16777384 14.94407539 17 13 C19.39490986 12.93029948 21.79167691 12.91551997 24.1875 12.9375 C25.45980469 12.94652344 26.73210937 12.95554688 28.04296875 12.96484375 C29.50669922 12.98224609 29.50669922 12.98224609 31 13 C29.03924755 19.45414347 26.49543133 23.76412927 20.734375 27.44921875 C13.64493904 31.16114041 6.09357579 34.27217335 -2 34 C-0.86500606 30.70851757 -0.00716624 30.0040131 3.125 28.25 C4.07375 27.8375 5.0225 27.425 6 27 C-0.74837807 28.70958911 -4.32392679 30.86772452 -9 36 C-9.66 36 -10.32 36 -11 36 C-10.67 33.36 -10.34 30.72 -10 28 C-11.32 30.64 -12.64 33.28 -14 36 C-14.66 36 -15.32 36 -16 36 C-16.40337977 23.82390693 -16.4803734 13.62771803 -8 4 C-3.69230769 0 -3.69230769 0 0 0 Z " fill="#111111" transform="translate(265,242)"/>
<path d="M0 0 C4.41776592 1.10444148 7.03676312 2.63406683 10 6 C13.15896939 11.29591927 16.14479532 16.74222264 16.09765625 23.01171875 C16.09443359 23.76904297 16.09121094 24.52636719 16.08789062 25.30664062 C16.07532227 26.48516602 16.07532227 26.48516602 16.0625 27.6875 C16.05798828 28.48478516 16.05347656 29.28207031 16.04882812 30.10351562 C16.0370585 32.06904257 16.01912348 34.03453085 16 36 C15.01 35.67 14.02 35.34 13 35 C11.83203125 32.05859375 11.83203125 32.05859375 10.8125 28.4375 C10.46832031 27.23996094 10.12414062 26.04242188 9.76953125 24.80859375 C9.38861328 23.41833984 9.38861328 23.41833984 9 22 C9.144375 22.67546875 9.28875 23.3509375 9.4375 24.046875 C9.623125 24.93890625 9.80875 25.8309375 10 26.75 C10.2784375 28.07257813 10.2784375 28.07257813 10.5625 29.421875 C11 32 11 32 11 36 C8.53382897 34.97951544 7.20425486 34.30062436 5.68359375 32.0625 C3.62548309 29.54119507 1.9084833 28.8643408 -1.125 27.75 C-2.45917969 27.24726563 -2.45917969 27.24726563 -3.8203125 26.734375 C-5.77459743 25.94678615 -5.77459743 25.94678615 -7 26 C-4.36 27.32 -1.72 28.64 1 30 C1 30.99 1 31.98 1 33 C-8.97377797 33.54402425 -17.408368 30.62490732 -25 24 C-31 16.66666667 -31 16.66666667 -31 13 C-17.94722196 12.38494763 -10.62901146 14.02824141 0 22 C0 14.74 0 7.48 0 0 Z " fill="#131313" transform="translate(75,242)"/>
<path d="M0 0 C0.99 0.33 1.98 0.66 3 1 C4.04321289 3.48095703 4.04321289 3.48095703 4.97265625 6.7578125 C5.48602539 8.53285156 5.48602539 8.53285156 6.00976562 10.34375 C6.35716797 11.5915625 6.70457031 12.839375 7.0625 14.125 C7.41376953 15.34960938 7.76503906 16.57421875 8.12695312 17.8359375 C8.80295981 20.19748827 9.47202766 22.56103912 10.13330078 24.92675781 C10.80673505 27.31469882 11.51563879 29.68408168 12.24609375 32.0546875 C13 35 13 35 13 40 C4.42 40 -4.16 40 -13 40 C-12.30462077 34.43696612 -11.83071096 31.1177795 -9.85595703 26.21386719 C-8.87023276 23.66436699 -8.05403198 21.08778326 -7.24609375 18.4765625 C-6.80040039 17.03990234 -6.80040039 17.03990234 -6.34570312 15.57421875 C-5.73330297 13.58556449 -5.12399433 11.59595591 -4.51757812 9.60546875 C-4.07381836 8.18041016 -4.07381836 8.18041016 -3.62109375 6.7265625 C-3.3573999 5.86627441 -3.09370605 5.00598633 -2.82202148 4.11962891 C-2 2 -2 2 0 0 Z " fill="#F5F5F5" transform="translate(258,71)"/>
<path d="M0 0 C0.99 0.33 1.98 0.66 3 1 C3.79627387 3.68028791 4.42257348 6.27284951 5 9 C5.3854202 10.50756701 5.78010351 12.01279345 6.18359375 13.515625 C6.38766846 14.28656494 6.59174316 15.05750488 6.80200195 15.85180664 C7.01171631 16.64321045 7.22143066 17.43461426 7.4375 18.25 C13 39.33900536 13 39.33900536 13 42 C4.75 42 -3.5 42 -12 42 C-10.68218689 35.41093446 -9.32692045 29.49740686 -7.125 23.25 C-4.48474378 15.56262415 -2.14291447 7.84054588 0 0 Z " fill="#F7F7F7" transform="translate(305,68)"/>
<path d="M0 0 C3.625 0.3125 3.625 0.3125 5.5 2.125 C9.20974176 9.33838675 8.29748408 18.52389177 6.32421875 26.20703125 C4.65354093 31.23773151 3.10368615 35.32670923 -1.375 38.3125 C-4.19118478 38.6645231 -5.71053828 38.78008417 -8.0625 37.125 C-12.4091559 31.12247519 -11.91079766 24.40151517 -11.375 17.3125 C-10.14048056 10.71638151 -7.68111052 0.71121394 0 0 Z " fill="#F4F7FA" transform="translate(474.375,157.6875)"/>
<path d="M0 0 C3.5625 0.3125 3.5625 0.3125 5.4375 1.625 C9.270964 7.375196 8.15427896 16.63452624 7.5625 23.3125 C6.17267388 29.43830968 3.73766198 34.52579611 -1.4375 38.3125 C-4.0625 38.875 -4.0625 38.875 -6.4375 38.3125 C-11.95474387 32.59821171 -10.90246324 24.49407785 -10.796875 17.09375 C-10.47788565 10.1733031 -7.86598921 0.71508993 0 0 Z " fill="#F6F7FA" transform="translate(418.4375,157.6875)"/>
<path d="M0 0 C2.37570543 -0.0816082 4.74855841 -0.14077222 7.125 -0.1875 C7.79015625 -0.21263672 8.4553125 -0.23777344 9.140625 -0.26367188 C13.86179402 -0.33310083 17.00510618 0.49256664 21 3 C22.96400295 6.9280059 22.33541968 11.70787038 22 16 C20.70621914 19.45008228 19.52666137 20.59807422 16.625 22.8125 C11.18822259 24.59351329 5.67520507 24.60357844 0 24 C-2 22 -2 22 -2.265625 19.27734375 C-2.23404709 12.52756519 -1.76813355 6.51999246 0 0 Z " fill="#F7F8FA" transform="translate(347,170)"/>
<path d="M0 0 C3.71324681 1.19354362 5.32348973 3.43698683 7.16650391 6.78686523 C8.80714867 11.14317596 8.44878251 15.65879378 8.3125 20.25 C8.30283203 21.24257812 8.29316406 22.23515625 8.28320312 23.2578125 C8.17053127 30.48840618 8.17053127 30.48840618 7 34 C6.34 34 5.68 34 5 34 C4.67 33.34 4.34 32.68 4 32 C2.26043342 33.73956658 2.62809614 36.1936622 2.4375 38.5625 C2.35371094 39.57441406 2.26992188 40.58632812 2.18359375 41.62890625 C2.12300781 42.41136719 2.06242187 43.19382813 2 44 C1.01 43.01 0.02 42.02 -1 41 C-1 41.33 -1 41.66 -1 42 C-1 43.66666667 -1 45.33333333 -1 47 C-1.66 47 -2.32 47 -3 47 C-8.22939683 39.80957935 -11.4998915 32.99804702 -11 24 C-10.5 21.5625 -10.5 21.5625 -10 20 C-7.13275314 20.57344937 -6.1385485 20.8614515 -4 23 C-3.96261719 22.01 -3.92523438 21.02 -3.88671875 20 C-3.55372743 12.8682103 -3.07782966 6.55711537 0 0 Z " fill="#121212" transform="translate(298,132)"/>
<path d="M0 0 C3.49760135 7.45141157 3.69465822 14.91370736 4 23 C4.433125 22.505 4.86625 22.01 5.3125 21.5 C7 20 7 20 10 20 C12.04504927 26.13514782 11.47506275 32.14444111 9 38.0703125 C7.31969031 41.31278511 5.22784682 44.10982034 3 47 C-0.875 45.125 -0.875 45.125 -2 44 C-2.15686249 42.44051458 -2.25076639 40.87457332 -2.31640625 39.30859375 C-2.35830078 38.36435547 -2.40019531 37.42011719 -2.44335938 36.44726562 C-2.48267578 35.45404297 -2.52199219 34.46082031 -2.5625 33.4375 C-2.60568359 32.44041016 -2.64886719 31.44332031 -2.69335938 30.41601562 C-2.79980167 27.94418889 -2.90043759 25.4721134 -3 23 C-3.33 26.3 -3.66 29.6 -4 33 C-5.485 33.495 -5.485 33.495 -7 34 C-8.85160075 24.52776145 -10.65099532 11.7292228 -5.125 3.3125 C-2.46213592 0 -2.46213592 0 0 0 Z " fill="#0E0E0E" transform="translate(42,132)"/>
<path d="M0 0 C1.670625 0.37125 1.670625 0.37125 3.375 0.75 C5.840579 5.681158 4.90474748 12.54463819 3.65625 17.7421875 C1.49382273 24.03764108 -1.15985115 30.15113836 -6.625 34.25 C-9.27954965 34.91363741 -11.03127143 34.56907218 -13.625 33.75 C-16.25776353 31.11723647 -15.92344863 29.85490842 -15.9375 26.1875 C-15.74222727 16.56170306 -12.70072894 9.2339057 -6.625 1.75 C-3.625 -0.25 -3.625 -0.25 0 0 Z " fill="#F6F8FA" transform="translate(790.625,158.25)"/>
<path d="M0 0 C0.97453125 0.00902344 1.9490625 0.01804687 2.953125 0.02734375 C5.34400728 0.05078377 7.73437261 0.08359558 10.125 0.125 C9.50828564 5.75374222 6.76912552 7.75404275 2.59765625 11.2578125 C-6.64761725 18.23923546 -15.59864578 18.29164563 -26.875 18.125 C-26.2578125 16.265625 -26.2578125 16.265625 -24.875 14.125 C-20.97736876 12.37592449 -16.98155774 11.34822996 -12.875 10.125 C-19.805 11.61 -19.805 11.61 -26.875 13.125 C-24.60673391 7.45433479 -24.60673391 7.45433479 -21.125 4.9375 C-20.47015625 4.44894531 -19.8153125 3.96039063 -19.140625 3.45703125 C-12.88047233 -0.22350678 -7.05516238 -0.12427793 0 0 Z " fill="#0D0D0D" transform="translate(266.875,279.875)"/>
<path d="M0 0 C24.90551136 -0.51469484 24.90551136 -0.51469484 34 7 C36 9.8125 36 9.8125 37 12 C31.555 11.505 31.555 11.505 26 11 C27.44375 11.4125 28.8875 11.825 30.375 12.25 C34.68269231 13.48076923 34.68269231 13.48076923 36.2890625 16.109375 C36.52367187 16.73328125 36.75828125 17.3571875 37 18 C24.37074541 18.49133988 14.58540533 17.79901953 5 9 C0 3.96350365 0 3.96350365 0 0 Z " fill="#0C0C0C" transform="translate(63,280)"/>
<path d="M0 0 C4.03570662 0.71538537 6.93245833 2.33748194 9.90234375 5.109375 C11.57220472 8.44909694 11.53602051 10.6714685 11.02734375 14.359375 C8.19071425 18.65484253 5.91735491 20.86597671 1.02734375 22.359375 C-2.3046875 22.5546875 -2.3046875 22.5546875 -5.78515625 22.484375 C-6.94660156 22.46632812 -8.10804688 22.44828125 -9.3046875 22.4296875 C-10.18511719 22.40648437 -11.06554687 22.38328125 -11.97265625 22.359375 C-11.73331069 20.47880278 -11.49271217 18.59838228 -11.24609375 16.71875 C-11.06429186 15.15005937 -10.92337574 13.57607428 -10.82421875 12 C-10.55959656 8.24488513 -10.1413745 5.69006277 -8.41015625 2.296875 C-5.56566093 0.0358659 -3.6068931 -0.24180289 0 0 Z " fill="#F0F4F8" transform="translate(359.97265625,136.640625)"/>
<path d="M0 0 C-1.10992324 10.21129384 -3.6126414 18.53679583 -11 26 C-13.35312972 27.86678349 -15.17428112 28.82706009 -18 30 C-19.32 29.67 -20.64 29.34 -22 29 C-18.535 24.05 -18.535 24.05 -15 19 C-16.423125 20.670625 -16.423125 20.670625 -17.875 22.375 C-19.53587775 24.32472605 -21.18776037 26.18776037 -23 28 C-23.99 28 -24.98 28 -26 28 C-24.93822232 19.40465687 -20.2619496 10.97731553 -14 5 C-9.31848679 2.12846824 -5.55621046 0 0 0 Z " fill="#0C0C0C" transform="translate(248,266)"/>
<path d="M0 0 C6.66997706 0.51307516 12.27040091 3.28645738 16.9921875 7.98046875 C21.62350015 13.59568688 26 20.52427886 26 28 C22.73045798 27.43628586 21.17424117 26.50037734 19 24 C19.99 25.98 20.98 27.96 22 30 C16.65821674 29.37886241 12.98484189 28.43852004 9.49609375 24.15234375 C4.32099 16.79824895 0.78264504 9.00041795 0 0 Z " fill="#0D0D0D" transform="translate(92,266)"/>
<path d="M0 0 C1.5234375 1.16796875 1.5234375 1.16796875 3.5234375 4.16796875 C-0.1065625 4.16796875 -3.7365625 4.16796875 -7.4765625 4.16796875 C-7.4765625 4.82796875 -7.4765625 5.48796875 -7.4765625 6.16796875 C-3.8465625 6.16796875 -0.2165625 6.16796875 3.5234375 6.16796875 C3.1934375 7.48796875 2.8634375 8.80796875 2.5234375 10.16796875 C-1.95811781 12.30658329 -6.45803372 12.55454833 -11.3515625 12.54296875 C-12.05829102 12.54135742 -12.76501953 12.53974609 -13.49316406 12.53808594 C-20.59897195 12.37085188 -24.68291905 10.68224785 -29.9765625 5.91796875 C-30.4715625 5.34046875 -30.9665625 4.76296875 -31.4765625 4.16796875 C-30.4765625 1.16796875 -30.4765625 1.16796875 -28.17578125 0 C-18.5242007 -3.26726657 -9.29521995 -5.11825402 0 0 Z " fill="#0B0B0B" transform="translate(120.4765625,300.83203125)"/>
<path d="M0 0 C1.37981589 0.63624844 2.75034477 1.29314114 4.109375 1.97265625 C2.71740171 5.35522346 1.3068254 6.80954307 -1.828125 8.66015625 C-2.51777344 9.07652344 -3.20742187 9.49289062 -3.91796875 9.921875 C-10.53523725 13.44671703 -20.16780879 13.03189922 -27.265625 10.97265625 C-28.131875 10.64265625 -28.998125 10.31265625 -29.890625 9.97265625 C-29.890625 8.65265625 -29.890625 7.33265625 -29.890625 5.97265625 C-26.590625 5.97265625 -23.290625 5.97265625 -19.890625 5.97265625 C-19.890625 5.31265625 -19.890625 4.65265625 -19.890625 3.97265625 C-23.520625 3.97265625 -27.150625 3.97265625 -30.890625 3.97265625 C-23.24542621 -6.40297068 -11.00259027 -4.54100989 0 0 Z " fill="#0A0A0A" transform="translate(246.890625,301.02734375)"/>
<path d="M0 0 C10.04470935 -0.47331091 19.50776274 -0.28648541 27.5625 6.375 C30.28239775 8.99477882 32.08958242 11.24452749 33 15 C29.87709365 14.51421457 27.00419641 14.0013988 24 13 C26.64 14.32 29.28 15.64 32 17 C32 17.99 32 18.98 32 20 C22.02622203 20.54402425 13.591632 17.62490732 6 11 C0 3.66666667 0 3.66666667 0 0 Z " fill="#0A0A0A" transform="translate(44,255)"/>
<path d="M0 0 C0.33 1.32 0.66 2.64 1 4 C10.24 4 19.48 4 29 4 C29.33 2.68 29.66 1.36 30 0 C31.32 0.99 32.64 1.98 34 3 C33.70359143 6.45809994 33.03653935 7.95510879 30.8125 10.6875 C25.51821267 15.0405807 20.08195614 15.36343241 13.5 15.375 C12.39978516 15.41173828 12.39978516 15.41173828 11.27734375 15.44921875 C6.05012788 15.47727179 3.1652001 14.40054396 -1 11 C-5 6.68421053 -5 6.68421053 -5 3 C-3.68 3 -2.36 3 -1 3 C-0.67 2.01 -0.34 1.02 0 0 Z " fill="#090909" transform="translate(243,108)"/>
<path d="M0 0 C0.33 0 0.66 0 1 0 C1.28930064 14.9954165 0.52998233 29.77212201 -0.74121094 44.71313477 C-0.91599863 46.93310335 -1.06444658 49.15528004 -1.18847656 51.37866211 C-1.66142935 59.62679558 -2.84315698 67.60643341 -4.47412109 75.6965332 C-4.8765107 77.6950029 -5.26536495 79.69576052 -5.65234375 81.69726562 C-7.12699247 89.22723267 -8.86076685 96.63102775 -11 104 C-11.26006836 104.92651367 -11.52013672 105.85302734 -11.78808594 106.80761719 C-12.26014908 108.46858008 -12.76032439 110.12182533 -13.2890625 111.765625 C-13.89647089 113.67462279 -14.397163 115.6170208 -14.875 117.5625 C-17.71305196 120.81791254 -19.45356574 120.53096417 -23.6875 120.875 C-25.79094889 120.94396554 -27.8954294 120.99399552 -30 121 C-29.34 120.401875 -28.68 119.80375 -28 119.1875 C0.81615418 89.88155283 -2.69290951 38.15676718 0 0 Z " fill="#B3B3B3" transform="translate(191,155)"/>
<path d="M0 0 C1.31884671 4.35123147 0.63049486 7.82471408 -1 12 C-4.88966971 19.21967471 -12.43281007 26.2777088 -20.3359375 28.72265625 C-20.88507813 28.81417969 -21.43421875 28.90570313 -22 29 C-21.38722388 26.03824877 -20.74627478 24.61941217 -19 22 C-20.98 22.99 -20.98 22.99 -23 24 C-22.73027796 17.52667102 -20.50703578 13.62935617 -16 9 C-11.09477006 5.04732832 -5.8631929 2.24547813 0 0 Z " fill="#0D0D0D" transform="translate(306,225)"/>
<path d="M0 0 C9.55161145 2.51358196 17.30114017 7.99840321 23 16 C24.57727929 18.89167869 25.14729343 20.09169054 24.625 23.3125 C24.315625 24.1478125 24.315625 24.1478125 24 25 C22.02 23.35 20.04 21.7 18 20 C18.825 20.928125 19.65 21.85625 20.5 22.8125 C23 25.625 23 25.625 23 29 C14.29243134 26.49039506 7.29395737 20.82274635 2.89453125 12.87890625 C0.81100176 8.50258449 -0.28598806 4.86179703 0 0 Z " fill="#0C0C0C" transform="translate(33,225)"/>
<path d="M0 0 C6.88877382 0.43054836 12.02355172 2.7419958 16.734375 7.8984375 C20.5899061 12.88008907 24 17.53919333 24 24 C23.01 24 22.02 24 21 24 C20.34 23.34 19.68 22.68 19 22 C19.66 23.32 20.32 24.64 21 26 C18 27 18 27 16.16796875 26.28515625 C7.07967803 20.67443634 2.80545076 13.21514128 0 3 C0 2.01 0 1.02 0 0 Z " fill="#0F0F0F" transform="translate(117,281)"/>
<path d="M0 0 C0.33 0 0.66 0 1 0 C1.33 1.98 1.66 3.96 2 6 C4.97 5.01 7.94 4.02 11 3 C10.34 2.34 9.68 1.68 9 1 C11.25772699 -1.25772699 17.04485124 -0.24650574 20.19506836 -0.25976562 C26.47266951 -0.19119399 32.07980088 0.85184999 38 3 C37.67 5.31 37.34 7.62 37 10 C25.12 10.33 13.24 10.66 1 11 C1 13.97 1 16.94 1 20 C0.67 20 0.34 20 0 20 C0 13.4 0 6.8 0 0 Z " fill="#E3E3E3" transform="translate(147,18)"/>
<path d="M0 0 C0.99 0.33 1.98 0.66 3 1 C3.5 2.875 3.5 2.875 4 6 C4.17208984 6.98806641 4.17208984 6.98806641 4.34765625 7.99609375 C5.17670487 16.93474527 0.4606158 24.55668327 -4 32 C-4.99 32.495 -4.99 32.495 -6 33 C-5.67 29.7 -5.34 26.4 -5 23 C-5.99 25.64 -6.98 28.28 -8 31 C-11.03020647 26.4546903 -10.772962 22.32410894 -10 17 C-7.6115416 10.61785303 -4.3638168 5.21760705 0 0 Z " fill="#0D0D0D" transform="translate(309,163)"/>
<path d="M0 0 C3.8112204 1.46839228 5.13708671 3.36752996 7.125 6.875 C7.62257813 7.73867187 8.12015625 8.60234375 8.6328125 9.4921875 C9.30957031 10.73355469 9.30957031 10.73355469 10 12 C10.38671875 12.62648437 10.7734375 13.25296875 11.171875 13.8984375 C12.35184883 16.89289939 12.18903909 19.54804527 12.125 22.75 C12.10695313 23.92046875 12.08890625 25.0909375 12.0703125 26.296875 C12.03550781 27.63492188 12.03550781 27.63492188 12 29 C11.34 29.33 10.68 29.66 10 30 C9.01 27.36 8.02 24.72 7 22 C7.33 25.63 7.66 29.26 8 33 C1.636313 27.3181366 -1.43080186 20.29675438 -2.1875 11.92578125 C-2.32034859 7.56668684 -1.61301455 4.03253636 0 0 Z " fill="#0F0F0F" transform="translate(29,163)"/>
<path d="M0 0 C0.33 0 0.66 0 1 0 C0.11412192 14.76463462 -7.60184049 32.3686979 -18 43 C-21.21216049 45.53750609 -24.54896991 47.80227 -28 50 C-28.99 50.66 -29.98 51.32 -31 52 C-36.47569935 52.12734185 -41.82525265 50.65151511 -47 49 C-47 46.36 -47 43.72 -47 41 C-46.40832031 41.433125 -45.81664062 41.86625 -45.20703125 42.3125 C-44.41683594 42.869375 -43.62664062 43.42625 -42.8125 44 C-42.03519531 44.556875 -41.25789062 45.11375 -40.45703125 45.6875 C-37.60068361 47.21330732 -36.19202704 47.46375663 -33 47 C-20.74288304 41.39144042 -10.92480997 30.0794386 -6.06835938 17.60742188 C-3.91985009 11.7805969 -1.92659913 5.90353971 0 0 Z " fill="#E4E4E4" transform="translate(197,69)"/>
<path d="M0 0 C3 1 3 1 4.54296875 3.59423828 C5.08566406 4.74134277 5.62835938 5.88844727 6.1875 7.0703125 C6.4861647 7.69413315 6.78482941 8.3179538 7.09254456 8.9606781 C8.07139233 11.01099578 9.0356683 13.06782028 10 15.125 C10.67865967 16.55375398 11.35827369 17.98205503 12.03881836 19.40991211 C13.40329175 22.27622526 14.76235682 25.14499972 16.11669922 28.01611328 C17.71003248 31.39169716 19.3203013 34.75873873 20.94140625 38.12109375 C24.87295862 46.27764096 28.75445388 54.45642104 32.578125 62.6640625 C32.88753525 63.32814621 33.1969455 63.99222992 33.51573181 64.67643738 C35.03203274 67.93262249 36.54560342 71.19003992 38.05493164 74.44946289 C38.61043701 75.64563232 39.16594238 76.84180176 39.73828125 78.07421875 C40.54386475 79.80937744 40.54386475 79.80937744 41.36572266 81.57958984 C43.4668117 85.97699909 45.72141722 90.28821747 48.02026367 94.58520508 C49 97 49 97 48 100 C41.83178711 87.66357422 35.66357422 75.32714844 29.49536133 62.99072266 C29.08532867 62.17073792 28.67529602 61.35075317 28.25283813 60.50592041 C27.38667435 58.77342406 26.52078637 57.0407898 25.65512085 55.30804443 C25.21809845 54.43343567 24.78107605 53.5588269 24.33081055 52.65771484 C23.94015915 51.87568695 23.54950775 51.09365906 23.14701843 50.28793335 C21.97964141 47.95939116 20.80301249 45.63567632 19.625 43.3125 C17.30148003 38.67265361 15.12251216 33.97173571 12.95336914 29.25805664 C11.1476063 25.36688818 9.26799369 21.52154572 7.328125 17.6953125 C6.64206177 16.34155518 6.64206177 16.34155518 5.94213867 14.96044922 C5.03358258 13.17549262 4.1198077 11.39318131 3.20043945 9.61376953 C2.7849585 8.79763184 2.36947754 7.98149414 1.94140625 7.140625 C1.56701416 6.41391602 1.19262207 5.68720703 0.80688477 4.93847656 C0 3 0 3 0 0 Z " fill="#B2B2B2" transform="translate(98,170)"/>
<path d="M0 0 C1.57880505 5.71501331 2.25848328 11.25457033 -0.26953125 16.76953125 C-1.76338568 19.25201927 -3.32581878 21.63619491 -5 24 C-5.66 24.99 -6.32 25.98 -7 27 C-7.66 27 -8.32 27 -9 27 C-9.33 26.01 -9.66 25.02 -10 24 C-10.66 24 -11.32 24 -12 24 C-12.6125672 14.74342892 -11.48881974 9.0844719 -5.4375 2 C-3 0 -3 0 0 0 Z " fill="#141414" transform="translate(54,175)"/>
<path d="M0 0 C4.88925715 1.39693061 7.05441957 3.93987562 10 8 C11.82331107 11.74687292 12.2249843 14.66315175 12.125 18.8125 C12.10695313 19.78832031 12.08890625 20.76414063 12.0703125 21.76953125 C12.03550781 22.87361328 12.03550781 22.87361328 12 24 C11.34 23.67 10.68 23.34 10 23 C9.67 24.32 9.34 25.64 9 27 C8.34 27 7.68 27 7 27 C0.9473554 19.59866829 -1.78118444 12.53771696 -1 3 C-0.67 2.01 -0.34 1.02 0 0 Z " fill="#151515" transform="translate(286,175)"/>
<path d="M0 0 C0.33 0 0.66 0 1 0 C1.22419881 1.56030251 1.42863758 3.1234505 1.625 4.6875 C1.74101562 5.55761719 1.85703125 6.42773438 1.9765625 7.32421875 C2.00330965 10.37785142 1.14332937 12.19364608 0 15 C-0.23971089 17.89651829 -0.23971089 17.89651829 -0.125 20.8125 C-0.10695313 21.78832031 -0.08890625 22.76414063 -0.0703125 23.76953125 C-0.04710937 24.50558594 -0.02390625 25.24164063 0 26 C2.22189824 23.77810176 2.92598892 21.91517292 4 19 C5.04176389 21.89378857 4.93127664 23.43524792 4.4375 26.5625 C3.60377008 30.11557574 3.60377008 30.11557574 6 33 C5.18595703 33.76183594 5.18595703 33.76183594 4.35546875 34.5390625 C0.28905761 38.45160944 -2.89477656 41.7369414 -5 47 C-7.9512645 45.52436775 -8.06923915 43.49920648 -9.125 40.4375 C-9.47820312 39.42558594 -9.83140625 38.41367188 -10.1953125 37.37109375 C-10.46085937 36.58863281 -10.72640625 35.80617187 -11 35 C-9.515 34.505 -9.515 34.505 -8 34 C-7.67 34.99 -7.34 35.98 -7 37 C-6.34 37 -5.68 37 -5 37 C-5 35.35 -5 33.7 -5 32 C-4.34 32.33 -3.68 32.66 -3 33 C-2.47286326 25.85436858 -3.2643143 21.12112355 -7 15 C-7.33 14.34 -7.66 13.68 -8 13 C-7.34 12.34 -6.68 11.68 -6 11 C-5.67 11.99 -5.34 12.98 -5 14 C-4.34 14 -3.68 14 -3 14 C-3.66 10.7 -4.32 7.4 -5 4 C-2 8 -2 8 -1 10 C-0.67 6.7 -0.34 3.4 0 0 Z " fill="#DBDBDB" transform="translate(300,165)"/>
<path d="M0 0 C2.4375 0.3125 2.4375 0.3125 4.4375 2.3125 C4.79822674 6.93720184 4.04740438 11.09699453 1.125 14.75 C-2.86412162 18.55358108 -2.86412162 18.55358108 -5.5625 19.3125 C-8.3125 18.9375 -8.3125 18.9375 -10.5625 18.3125 C-11.2265051 11.93805101 -9.44148454 8.33878982 -5.5625 3.3125 C-2.96818797 0.36197414 -2.96818797 0.36197414 0 0 Z " fill="#EBF0F6" transform="translate(983.5625,156.6875)"/>
<path d="M0 0 C1.81059873 2.71589809 2.56292799 4.46705139 3.4375 7.53515625 C3.69273437 8.42783203 3.94796875 9.32050781 4.2109375 10.24023438 C4.60152344 11.63725586 4.60152344 11.63725586 5 13.0625 C5.39058594 14.41891602 5.39058594 14.41891602 5.7890625 15.80273438 C7.07356164 20.34064925 8.26971159 24.89629389 9.3125 29.49609375 C9.49425781 30.29072021 9.67601562 31.08534668 9.86328125 31.90405273 C10 34 10 34 8 37 C5.20263672 37.34057617 5.20263672 37.34057617 1.6796875 37.29296875 C0.42285156 37.28330078 -0.83398438 37.27363281 -2.12890625 37.26367188 C-3.44761719 37.23853516 -4.76632812 37.21339844 -6.125 37.1875 C-7.46482903 37.17245483 -8.80467404 37.15876613 -10.14453125 37.14648438 C-13.43008842 37.11102872 -16.71484582 37.06160849 -20 37 C-21.31681972 34.31273442 -22.10530133 32.64547302 -21.61621094 29.64746094 C-21.32520508 28.85114258 -21.03419922 28.05482422 -20.734375 27.234375 C-20.42113281 26.34363281 -20.10789063 25.45289062 -19.78515625 24.53515625 C-19.27275391 23.15650391 -19.27275391 23.15650391 -18.75 21.75 C-16.38530303 15.19801353 -14.36757379 8.83786894 -13 2 C-12.34 2 -11.68 2 -11 2 C-9.40152695 6.93187416 -10.74688453 10.62482292 -12.25 15.375 C-12.46785156 16.10460937 -12.68570313 16.83421875 -12.91015625 17.5859375 C-13.97064377 21.0588791 -15.13247555 24.40803051 -16.609375 27.7265625 C-18.21603672 31.2009297 -18.21603672 31.2009297 -19 36 C-10.42 36 -1.84 36 7 36 C4.71066774 27.88969077 4.71066774 27.88969077 2.39257812 19.78759766 C0.53257003 13.04243223 -0.50402234 6.99831015 0 0 Z " fill="#414141" transform="translate(264,75)"/>
<path d="M0 0 C0.51949219 0.39832031 1.03898438 0.79664063 1.57421875 1.20703125 C12.25986416 9.3249615 20.71808333 10.96644568 34 10 C39.15910137 9.09349123 43.50002249 7.4002935 48 4.75 C48.99 4.1725 49.98 3.595 51 3 C51.66 3.33 52.32 3.66 53 4 C40.82975856 12.74436639 27.89587296 16.03468716 13 14 C6.93184068 12.16139312 1.93239839 8.98103796 -2 4 C-2 3.01 -2 2.02 -2 1 C-1.34 0.67 -0.68 0.34 0 0 Z " fill="#D7D7D7" transform="translate(140,62)"/>
<path d="M0 0 C2.06635808 3.09953712 2.62166774 5.09982877 3.40234375 8.69921875 C3.77842773 10.39014648 3.77842773 10.39014648 4.16210938 12.11523438 C4.41798828 13.29408203 4.67386719 14.47292969 4.9375 15.6875 C6.87955544 24.62294177 8.89335539 32.78671078 13 41 C16.63 41 20.26 41 24 41 C22.17853509 44.64292982 21.65297877 45.59663415 18.5625 47.75 C17.96566406 48.17796875 17.36882812 48.6059375 16.75390625 49.046875 C15 50 15 50 12 50 C7.61815233 39.41153522 3.92983809 29.33440118 2 18 C1.79632813 16.90429688 1.59265625 15.80859375 1.3828125 14.6796875 C0.49019218 9.70302353 -0.09690061 5.06864727 0 0 Z " fill="#E8E8E8" transform="translate(144,212)"/>
<path d="M0 0 C0.33 0 0.66 0 1 0 C1 3.96 1 7.92 1 12 C3.7425957 9.2574043 4.50207198 8.25588615 5.6875 4.8125 C5.93886719 4.09707031 6.19023437 3.38164062 6.44921875 2.64453125 C6.63097656 2.10183594 6.81273437 1.55914062 7 1 C8.31538327 5.15771494 7.34433068 7.8879297 6 12 C6.49628906 11.52949219 6.99257812 11.05898438 7.50390625 10.57421875 C11.78994485 6.64602778 15.42069889 3.75036897 21 2 C22.485 2.495 22.485 2.495 24 3 C23.41992188 3.30292969 22.83984375 3.60585938 22.2421875 3.91796875 C16.71744528 6.88090806 11.75996127 9.88004378 7.5625 14.625 C6 16 6 16 2.625 17.4375 C-2.49586045 19.64476744 -5.87539097 22.39531301 -9 27 C-9.33 26.01 -9.66 25.02 -10 24 C-8.79083893 22.32722277 -7.57618881 20.65797947 -6.32666016 19.01513672 C-4.10008592 15.63307125 -3.20284136 11.94742908 -2.1875 8.0625 C-1.97158203 7.28326172 -1.75566406 6.50402344 -1.53320312 5.70117188 C-1.00950554 3.80422286 -0.50292677 1.90256127 0 0 Z " fill="#E6E6E6" transform="translate(248,266)"/>
<path d="M0 0 C1.70886979 1.08248691 3.41706871 2.16603294 5.125 3.25 C6.63126953 4.20132813 6.63126953 4.20132813 8.16796875 5.171875 C10.31698595 6.55910265 12.37796295 7.98860847 14.4375 9.5 C16.80215056 11.15874577 16.80215056 11.15874577 19.0625 11.0625 C21.86121838 9.52771895 23.78257486 7.27428219 26 5 C26.99 4.67 27.98 4.34 29 4 C27.51167917 7.58805994 25.48442067 9.60130497 22.5625 12.125 C21.78003906 12.80820313 20.99757812 13.49140625 20.19140625 14.1953125 C15.52350039 18.03947027 15.52350039 18.03947027 13.03125 17.8515625 C6.91762363 15.28854221 2.84707448 7.69414896 0 2 C0 1.34 0 0.68 0 0 Z " fill="#EEEEEE" transform="translate(147,135)"/>
<path d="M0 0 C-0.5164524 7.87589917 -2.45839742 14.91679484 -6 22 C-8.94140625 22.4140625 -8.94140625 22.4140625 -12.5625 22.625 C-13.76003906 22.69976562 -14.95757812 22.77453125 -16.19140625 22.8515625 C-17.58166016 22.92503906 -17.58166016 22.92503906 -19 23 C-18.01 22.1028125 -18.01 22.1028125 -17 21.1875 C-11.96296872 16.15046872 -7.52405419 10.09596516 -4.3828125 3.71484375 C-2.49064748 0 -2.49064748 0 0 0 Z " fill="#ECECEC" transform="translate(180,253)"/>
<path d="M0 0 C0.33 0 0.66 0 1 0 C1.144375 1.0725 1.28875 2.145 1.4375 3.25 C1.85630887 6.73407575 1.85630887 6.73407575 2.625 8.9375 C3.24630253 12.35466394 2.51278451 15.58143659 2 19 C1.67 19 1.34 19 1 19 C0.67 16.36 0.34 13.72 0 11 C-0.47959778 13.22907395 -0.9586608 15.45826297 -1.4375 17.6875 C-1.70433594 18.92886719 -1.97117188 20.17023438 -2.24609375 21.44921875 C-2.49488281 22.62097656 -2.74367187 23.79273438 -3 25 C-3.28810547 26.35544922 -3.28810547 26.35544922 -3.58203125 27.73828125 C-4.66211496 33.58284637 -4.16818454 37.04110246 -1 42 C-1.33 42.99 -1.66 43.98 -2 45 C-2.7425 44.360625 -3.485 43.72125 -4.25 43.0625 C-6.7111121 41.21666593 -8.03466926 40.43930826 -11 40 C-10.34196034 36.10898288 -9.17334597 32.67547567 -7.75 29 C-4.29734569 19.55804741 -2.18130827 9.79975535 0 0 Z " fill="#DFDFDF" transform="translate(191,238)"/>
<path d="M0 0 C0.33 0.66 0.66 1.32 1 2 C0.0390625 3.8046875 0.0390625 3.8046875 -1.375 5.875 C-3.21931349 8.58480138 -4.37689044 10.76852482 -5 14 C-4.01 13.67 -3.02 13.34 -2 13 C-1.67 13.66 -1.34 14.32 -1 15 C-1.88751953 15.52787109 -1.88751953 15.52787109 -2.79296875 16.06640625 C-9.46233046 20.23339733 -14.04886976 24.24735891 -16.3125 31.9375 C-16.539375 32.948125 -16.76625 33.95875 -17 35 C-15.02 33.68 -13.04 32.36 -11 31 C-12.15173355 33.46800047 -13.04783565 35.04783565 -15 37 C-15.99 37 -16.98 37 -18 37 C-19.14865435 33.20944065 -18.76821355 30.89321688 -17.546875 27.1796875 C-16.38868366 22.56346772 -16.2955654 17.73682443 -16 13 C-15.01 13.66 -14.02 14.32 -13 15 C-10.89768759 14.99530794 -10.89768759 14.99530794 -9 14 C-8.31423677 12.67638713 -7.65188367 11.34062295 -7 10 C-5.81665167 8.23300929 -4.60676121 6.48358985 -3.375 4.75 C-2.74335938 3.85796875 -2.11171875 2.9659375 -1.4609375 2.046875 C-0.73777344 1.03367188 -0.73777344 1.03367188 0 0 Z " fill="#CECECE" transform="translate(300,214)"/>
<path d="M0 0 C3.59478807 3.32850747 6.22364768 6.98971331 9 11 C9.99 9.68 10.98 8.36 12 7 C12.33 9.31 12.66 11.62 13 14 C13.99 13.67 14.98 13.34 16 13 C16.12117188 13.92941406 16.24234375 14.85882813 16.3671875 15.81640625 C17.34219691 23.62244094 17.34219691 23.62244094 19.1875 31.25 C20 34 20 34 19 36 C18.34 35.67 17.68 35.34 17 35 C16.87625 34.13375 16.7525 33.2675 16.625 32.375 C15.20894221 24.72828792 10.93382779 20.54330202 5 16 C4.195625 15.38125 3.39125 14.7625 2.5625 14.125 C2.046875 13.75375 1.53125 13.3825 1 13 C1.66 12.67 2.32 12.34 3 12 C3.66 12.33 4.32 12.66 5 13 C4.54625 11.906875 4.0925 10.81375 3.625 9.6875 C3.36976562 9.07261719 3.11453125 8.45773438 2.8515625 7.82421875 C1.93193308 5.73466068 1.93193308 5.73466068 0 3 C0 2.01 0 1.02 0 0 Z " fill="#CECECE" transform="translate(40,215)"/>
<path d="M0 0 C0.66 0.66 1.32 1.32 2 2 C1.9162616 5.85196655 1.5021736 7.4978264 -1.25 10.25 C-5.40848412 12.89630808 -8.02685716 14 -13 14 C-13.45796457 10.87057543 -13.50559016 8.76774802 -11.734375 6.078125 C-8.03317621 1.73011477 -5.96464838 -0.44734863 0 0 Z " fill="#EAEEF4" transform="translate(536,161)"/>
<path d="M0 0 C0.66 0.66 1.32 1.32 2 2 C1.63810419 7.06030176 0.28772858 11.54097283 -1.375 16.3125 C-3.40948782 22.18505532 -5.20899359 28.02997862 -7 34 C1.25 34 9.5 34 18 34 C17.34 32.35 16.68 30.7 16 29 C16.375 26.6875 16.375 26.6875 17 25 C18.31626692 28.61973402 19 31.09567131 19 35 C14.54172074 35.0578304 10.0835372 35.09353855 5.625 35.125 C4.35398437 35.14175781 3.08296875 35.15851563 1.7734375 35.17578125 C0.56171875 35.18222656 -0.65 35.18867187 -1.8984375 35.1953125 C-3.01911621 35.20578613 -4.13979492 35.21625977 -5.29443359 35.22705078 C-8 35 -8 35 -10 33 C-9.64002408 28.27527133 -8.50618737 24.08089663 -6.93359375 19.62890625 C-6.53076172 18.47841797 -6.12792969 17.32792969 -5.71289062 16.14257812 C-5.29201172 14.96115234 -4.87113281 13.77972656 -4.4375 12.5625 C-4.01275391 11.35400391 -3.58800781 10.14550781 -3.15039062 8.90039062 C-2.1060029 5.93151317 -1.05572123 2.96486218 0 0 Z " fill="#555555" transform="translate(300,76)"/>
<path d="M0 0 C1.65 0 3.3 0 5 0 C5 7.59 5 15.18 5 23 C3.35 22.67 1.7 22.34 0 22 C0 14.74 0 7.48 0 0 Z " fill="#101010" transform="translate(167,304)"/>
<path d="M0 0 C1.32 0 2.64 0 4 0 C4 7.59 4 15.18 4 23 C2.35 22.67 0.7 22.34 -1 22 C-1.02887814 18.52085059 -1.04675687 15.04173169 -1.0625 11.5625 C-1.07087891 10.56927734 -1.07925781 9.57605469 -1.08789062 8.55273438 C-1.09111328 7.60849609 -1.09433594 6.66425781 -1.09765625 5.69140625 C-1.10289307 4.81685791 -1.10812988 3.94230957 -1.11352539 3.04125977 C-1 1 -1 1 0 0 Z " fill="#131313" transform="translate(161,304)"/>
<path d="M0 0 C1.32 0 2.64 0 4 0 C4 7.59 4 15.18 4 23 C2.68 23 1.36 23 0 23 C-1.19219354 20.61561291 -1.12916022 19.12343998 -1.1328125 16.46484375 C-1.13410156 15.57345703 -1.13539063 14.68207031 -1.13671875 13.76367188 C-1.13285156 12.83103516 -1.12898437 11.89839844 -1.125 10.9375 C-1.12886719 10.00099609 -1.13273438 9.06449219 -1.13671875 8.09960938 C-1.13542969 7.20951172 -1.13414062 6.31941406 -1.1328125 5.40234375 C-1.13168457 4.58241943 -1.13055664 3.76249512 -1.12939453 2.91772461 C-1 1 -1 1 0 0 Z " fill="#141414" transform="translate(175,303)"/>
<path d="M0 0 C1.65 0.33 3.3 0.66 5 1 C5 7.6 5 14.2 5 21 C3.35 21.33 1.7 21.66 0 22 C0 19.36 0 16.72 0 14 C-0.66 13.67 -1.32 13.34 -2 13 C-1.34 13 -0.68 13 0 13 C0 8.71 0 4.42 0 0 Z " fill="#0F0F0F" transform="translate(153,303)"/>
<path d="M0 0 C2.65379969 3.26933309 4.44395945 6.70052653 6.28515625 10.48046875 C6.90420872 11.73897566 7.523352 12.9974379 8.14257812 14.25585938 C9.10785731 16.23008103 10.07113548 18.2052513 11.0324707 20.18139648 C11.96578562 22.09612557 12.90632214 24.00717254 13.84765625 25.91796875 C14.40461182 27.06031982 14.96156738 28.2026709 15.53540039 29.37963867 C16.73433139 32.10156433 16.73433139 32.10156433 19 33 C19 33.99 19 34.98 19 36 C18.01 36 17.02 36 16 36 C13.92951782 32.40036487 11.87014642 28.79448536 9.8125 25.1875 C9.23435547 24.18267578 8.65621094 23.17785156 8.06054688 22.14257812 C4.32331234 15.57602479 0.99599592 8.93642839 -2 2 C-1.34 2 -0.68 2 0 2 C0 1.34 0 0.68 0 0 Z " fill="#191919" transform="translate(129,236)"/>
<path d="M0 0 C-0.74765625 0.26554687 -1.4953125 0.53109375 -2.265625 0.8046875 C-3.25046875 1.15789062 -4.2353125 1.51109375 -5.25 1.875 C-6.22453125 2.22304688 -7.1990625 2.57109375 -8.203125 2.9296875 C-12.93329925 4.4740004 -12.93329925 4.4740004 -16 8 C-8.08 7.505 -8.08 7.505 0 7 C-3.32143153 9.21428769 -5.02131726 9.42082766 -8.9375 9.75 C-9.97777344 9.84796875 -11.01804688 9.9459375 -12.08984375 10.046875 C-15.11221947 9.99819244 -16.4356564 9.48259694 -19 8 C-20.99110401 7.61709538 -22.99100513 7.27395385 -25 7 C-23.74874616 3.24623848 -22.4347596 2.75926711 -19 1 C-18.34 1 -17.68 1 -17 1 C-17 1.66 -17 2.32 -17 3 C-16.02417969 2.69964844 -15.04835937 2.39929688 -14.04296875 2.08984375 C-12.75794817 1.70527555 -11.47278431 1.32118586 -10.1875 0.9375 C-9.54490234 0.73833984 -8.90230469 0.53917969 -8.24023438 0.33398438 C-3.33984375 -1.11328125 -3.33984375 -1.11328125 0 0 Z " fill="#C6C6C6" transform="translate(256,290)"/>
<path d="M0 0 C0.33 0 0.66 0 1 0 C1.0093457 0.68102783 1.01869141 1.36205566 1.02832031 2.0637207 C1.08198131 5.14738647 1.16563551 8.22952794 1.25 11.3125 C1.26417969 12.38435547 1.27835938 13.45621094 1.29296875 14.56054688 C1.32519531 15.58857422 1.35742188 16.61660156 1.390625 17.67578125 C1.41157227 18.62364502 1.43251953 19.57150879 1.45410156 20.5480957 C1.78797804 23.16596849 1.78797804 23.16596849 4.03808594 24.83276367 C4.68551758 25.21795166 5.33294922 25.60313965 6 26 C6.33 25.01 6.66 24.02 7 23 C7.66 23.99 8.32 24.98 9 26 C8.38125 26.763125 7.7625 27.52625 7.125 28.3125 C4.127267 32.72405743 3.70091179 37.8169418 3 43 C2.67 42.34 2.34 41.68 2 41 C1.34 40.67 0.68 40.34 0 40 C0.495 39.505 0.495 39.505 1 39 C1.12635423 36.91956287 1.17581705 34.83423788 1.1875 32.75 C1.20167969 31.61046875 1.21585938 30.4709375 1.23046875 29.296875 C1.18899186 26.08622517 1.18899186 26.08622517 0 23.68359375 C-1.5201428 19.60414804 -1.2492684 15.62653483 -1.1875 11.3125 C-1.18685547 10.44560547 -1.18621094 9.57871094 -1.18554688 8.68554688 C-1.14069283 2.28138566 -1.14069283 2.28138566 0 0 Z " fill="#B2B2B2" transform="translate(39,153)"/>
<path d="M0 0 C0.33 0 0.66 0 1 0 C1.22419881 1.56030251 1.42863758 3.1234505 1.625 4.6875 C1.74101562 5.55761719 1.85703125 6.42773438 1.9765625 7.32421875 C2 10 2 10 1.0234375 12.421875 C-0.25123424 15.63288015 -0.12752987 18.1231787 0 21.5625 C0.15250051 25.68477949 0.21947793 28.45403722 -2 32 C-2.14695312 30.82244141 -2.14695312 30.82244141 -2.296875 29.62109375 C-3.21520784 23.16901391 -4.31816364 18.40002666 -8 13 C-7.34 12.34 -6.68 11.68 -6 11 C-5.67 11.99 -5.34 12.98 -5 14 C-4.34 14 -3.68 14 -3 14 C-3.66 10.7 -4.32 7.4 -5 4 C-2 8 -2 8 -1 10 C-0.67 6.7 -0.34 3.4 0 0 Z " fill="#BABABA" transform="translate(300,165)"/>
<path d="M0 0 C0.33 0 0.66 0 1 0 C0.28975793 11.83736788 -4.84566531 25.49625455 -12 35 C-14.71875 35.85546875 -14.71875 35.85546875 -17 36 C-16.54109375 35.29875 -16.0821875 34.5975 -15.609375 33.875 C-14.99578125 32.92625 -14.3821875 31.9775 -13.75 31 C-13.14671875 30.071875 -12.5434375 29.14375 -11.921875 28.1875 C-8.02164843 21.71883154 -5.17638319 15.142975 -2.75 8 C-2.481875 7.22527344 -2.21375 6.45054688 -1.9375 5.65234375 C-1.28678233 3.76991049 -0.64267935 1.88519275 0 0 Z " fill="#D4D4D4" transform="translate(197,69)"/>
<path d="M0 0 C3 1 3 1 4.45800781 3.3449707 C6.06774982 6.66197502 7.67298757 9.97977164 9.25 13.3125 C10.10078125 15.0440332 10.10078125 15.0440332 10.96875 16.81054688 C11.49984375 17.92107422 12.0309375 19.03160156 12.578125 20.17578125 C13.06700195 21.19583252 13.55587891 22.21588379 14.05957031 23.2668457 C15.03780676 26.10987712 15.09347562 27.25360565 14 30 C12.41524955 27.00074658 10.83246479 24.00045992 9.25 21 C8.8065625 20.16082031 8.363125 19.32164062 7.90625 18.45703125 C6.59772072 15.97467422 5.29794907 13.48790238 4 11 C3.59716797 10.23945313 3.19433594 9.47890625 2.77929688 8.6953125 C0 3.34259259 0 3.34259259 0 0 Z " fill="#D3D3D3" transform="translate(98,170)"/>
<path d="M0 0 C0.66 0 1.32 0 2 0 C3.57693053 4.90493117 2.29600892 8.58151916 0.8125 13.3125 C0.58344971 14.06781006 0.35439941 14.82312012 0.1184082 15.60131836 C-1.46991734 20.69331938 -3.33599597 25.36265966 -6 30 C-6.33 30 -6.66 30 -7 30 C-6.42689423 23.7103455 -4.94741176 18.16127486 -2.9375 12.1875 C-2.38020681 10.51562044 -1.82665035 8.84248935 -1.27734375 7.16796875 C-1.03234131 6.43860107 -0.78733887 5.7092334 -0.53491211 4.95776367 C0.13178262 2.85593329 0.13178262 2.85593329 0 0 Z " fill="#252525" transform="translate(251,77)"/>
<path d="M0 0 C2.07435627 3.11153441 2.65930092 5.19194809 3.47265625 8.8046875 C3.73240234 9.94550781 3.99214844 11.08632812 4.25976562 12.26171875 C4.52466797 13.45410156 4.78957031 14.64648438 5.0625 15.875 C5.33126953 17.05964844 5.60003906 18.24429688 5.87695312 19.46484375 C6.97003753 24.30058372 8.04501203 29.13488238 9 34 C8.01 34 7.02 34 6 34 C-0.18214314 10.35180196 -0.18214314 10.35180196 0 0 Z " fill="#999999" transform="translate(144,212)"/>
<path d="M0 0 C3.29931873 4.19481417 5.45713265 8.70450773 7.75 13.5 C8.17410156 14.35464844 8.59820312 15.20929688 9.03515625 16.08984375 C9.43089844 16.91613281 9.82664062 17.74242187 10.234375 18.59375 C10.59756836 19.34333984 10.96076172 20.09292969 11.33496094 20.86523438 C12.10374033 23.33300492 11.85102469 24.59534464 11 27 C7.56325176 21.47228519 4.36697566 16.08650883 2 10 C1.56494141 8.94232422 1.56494141 8.94232422 1.12109375 7.86328125 C0.34860424 5.93378951 -0.33275722 3.9683662 -1 2 C-0.67 1.34 -0.34 0.68 0 0 Z " fill="#C6C6C6" transform="translate(113,198)"/>
<path d="M0 0 C2.22148064 3.33222095 3.04894478 6.48970381 4 10.3125 C4.94128836 14.02985363 5.89763239 17.70299467 7.1484375 21.33203125 C8.03715834 24.11641811 8.03268665 25.31501471 7 28 C6.67 27.01 6.34 26.02 6 25 C5.34 25.33 4.68 25.66 4 26 C3.12337809 22.98523188 2.27791361 19.96254317 1.4375 16.9375 C1.0672168 15.66616211 1.0672168 15.66616211 0.68945312 14.36914062 C-0.74756987 9.12704265 -1.20531755 5.31927567 0 0 Z " fill="#2D2D2D" transform="translate(310,70)"/>
<path d="M0 0 C0.99 0 1.98 0 3 0 C4.33257403 14.78132118 4.33257403 14.78132118 3 21 C2.01 21 1.02 21 0 21 C0 14.07 0 7.14 0 0 Z " fill="#000000" transform="translate(183,303)"/>
<path d="M0 0 C1.1792926 2.8620259 1.01953176 3.94708669 -0.07421875 6.91015625 C-0.60660156 7.95042969 -1.13898438 8.99070312 -1.6875 10.0625 C-2.20699219 11.10535156 -2.72648438 12.14820312 -3.26171875 13.22265625 C-4.98346136 15.97357534 -6.19136511 17.41980465 -9 19 C-12.75 19.1875 -12.75 19.1875 -16 19 C-16 18.34 -16 17.68 -16 17 C-15.48050781 16.78085938 -14.96101562 16.56171875 -14.42578125 16.3359375 C-6.65615113 12.80298185 -2.98327817 7.85073202 0 0 Z " fill="#C5C5C5" transform="translate(192,100)"/>
<path d="M0 0 C0.33 0 0.66 0 1 0 C1.144375 1.0725 1.28875 2.145 1.4375 3.25 C1.85630887 6.73407575 1.85630887 6.73407575 2.625 8.9375 C3.24630253 12.35466394 2.51278451 15.58143659 2 19 C1.67 19 1.34 19 1 19 C0.67 16.36 0.34 13.72 0 11 C-0.66 14.63 -1.32 18.26 -2 22 C-2.66 21.34 -3.32 20.68 -4 20 C-3.6687726 13.04422451 -1.97762094 6.65425915 0 0 Z " fill="#878787" transform="translate(191,238)"/>
<path d="M0 0 C1.31538327 4.15771494 0.34433068 6.8879297 -1 11 C-0.25556641 10.29423828 -0.25556641 10.29423828 0.50390625 9.57421875 C4.78994485 5.64602778 8.42069889 2.75036897 14 1 C14.99 1.33 15.98 1.66 17 2 C16.41992188 2.30292969 15.83984375 2.60585938 15.2421875 2.91796875 C9.43248206 6.03373487 4.67602455 9.32397545 0 14 C0 13.34 0 12.68 0 12 C-0.66 12 -1.32 12 -2 12 C-3.12377697 8.69564916 -2.89554742 6.9493138 -1.5625 3.75 C-1.27503906 3.04359375 -0.98757812 2.3371875 -0.69140625 1.609375 C-0.46324219 1.07828125 -0.23507813 0.5471875 0 0 Z " fill="#C0C0C0" transform="translate(255,267)"/>
<path d="M0 0 C2.65213644 3.31110285 4.62680651 6.82545304 6.625 10.5625 C7.23601562 11.69816406 7.84703125 12.83382813 8.4765625 14.00390625 C10 17 10 17 11 20 C10.01 20 9.02 20 8 20 C6.46382917 17.42474285 4.94611799 14.841326 3.4375 12.25 C2.78104492 11.15558594 2.78104492 11.15558594 2.11132812 10.0390625 C1.70205078 9.33007812 1.29277344 8.62109375 0.87109375 7.890625 C0.48880615 7.24125977 0.10651855 6.59189453 -0.28735352 5.92285156 C-1.16347293 3.5589199 -0.82193222 2.34057154 0 0 Z " fill="#1F1F1F" transform="translate(137,252)"/>
<path d="M0 0 C0.99 1.485 0.99 1.485 2 3 C2.763125 2.814375 3.52625 2.62875 4.3125 2.4375 C9.30269322 1.84544318 14.02603203 2.42471901 19 3 C19 3.33 19 3.66 19 4 C18.10796875 4.13277344 17.2159375 4.26554687 16.296875 4.40234375 C15.12640625 4.57894531 13.9559375 4.75554688 12.75 4.9375 C11.00976562 5.19853516 11.00976562 5.19853516 9.234375 5.46484375 C8.16703125 5.64144531 7.0996875 5.81804688 6 6 C5.24203125 6.12503906 4.4840625 6.25007813 3.703125 6.37890625 C1.60304091 6.95448596 1.60304091 6.95448596 0 10 C0 6.7 0 3.4 0 0 Z " fill="#888888" transform="translate(148,17)"/>
<path d="M0 0 C0.33 0 0.66 0 1 0 C1.02725341 1.7290774 1.04650987 3.45828176 1.0625 5.1875 C1.07410156 6.15042969 1.08570313 7.11335937 1.09765625 8.10546875 C1.00381684 10.88686879 0.74454483 13.31963861 0 16 C-2.0625 17.8125 -2.0625 17.8125 -4 19 C-3.42543058 14.69072935 -2.74822782 10.40776673 -2 6.125 C-1.835 5.17882812 -1.67 4.23265625 -1.5 3.2578125 C-1 1 -1 1 0 0 Z " fill="#111111" transform="translate(191,248)"/>
<path d="M0 0 C0.33 0 0.66 0 1 0 C1.33 2.31 1.66 4.62 2 7 C2.66 7 3.32 7 4 7 C4.33 6.01 4.66 5.02 5 4 C5.6484375 5.765625 5.6484375 5.765625 6 8 C5.0390625 9.921875 5.0390625 9.921875 3.625 11.75 C3.16351563 12.36359375 2.70203125 12.9771875 2.2265625 13.609375 C1.82179688 14.06828125 1.41703125 14.5271875 1 15 C0.67 15 0.34 15 0 15 C0 10.05 0 5.1 0 0 Z " fill="#DCDCDC" transform="translate(301,159)"/>
<path d="M0 0 C1.9009762 2.8514643 2.96265899 5.29710476 4.125 8.5 C4.47820312 9.4590625 4.83140625 10.418125 5.1953125 11.40625 C6 14 6 14 6 17 C5.34 17 4.68 17 4 17 C-0.59225513 5.47835991 -0.59225513 5.47835991 0 0 Z " fill="#1E1E1E" transform="translate(315,92)"/>
<path d="M0 0 C0.99 0.33 1.98 0.66 3 1 C1.70022952 5.8991349 0.07626313 10.37559575 -2 15 C-2.33 15 -2.66 15 -3 15 C-2.44854729 9.76119922 -1.57077907 5.02649303 0 0 Z " fill="#2B2B2B" transform="translate(247,92)"/>
<path d="M0 0 C0.33 0 0.66 0 1 0 C0.45484328 7.08703739 -1.60918605 13.32796106 -4 20 C-4.66 19.67 -5.32 19.34 -6 19 C-4.12275039 12.62267685 -2.14328358 6.29304541 0 0 Z " fill="#828282" transform="translate(197,69)"/>
<path d="M0 0 C1.65 0.33 3.3 0.66 5 1 C4.67 3.31 4.34 5.62 4 8 C3.67 7.01 3.34 6.02 3 5 C0.89415562 4.19436362 0.89415562 4.19436362 -1.5625 3.8125 C-2.38878906 3.65394531 -3.21507812 3.49539062 -4.06640625 3.33203125 C-4.70449219 3.22246094 -5.34257812 3.11289062 -6 3 C-6 2.67 -6 2.34 -6 2 C-4.02 2 -2.04 2 0 2 C0 1.34 0 0.68 0 0 Z " fill="#AEAEAE" transform="translate(180,20)"/>
<path d="M0 0 C2.69462575 2.51498404 4.44708439 4.6723237 6 8 C6.66 8.66 7.32 9.32 8 10 C6.68 10 5.36 10 4 10 C3.67 10.66 3.34 11.32 3 12 C2.49166409 10.75336669 1.99368855 9.50250613 1.5 8.25 C1.2215625 7.55390625 0.943125 6.8578125 0.65625 6.140625 C0 4 0 4 0 0 Z " fill="#D6D6D6" transform="translate(151,245)"/>
<path d="M0 0 C0.33 0 0.66 0 1 0 C0.67 4.29 0.34 8.58 0 13 C-0.66 12.01 -1.32 11.02 -2 10 C-2.66 10 -3.32 10 -4 10 C-3.52449439 8.51965236 -3.04448784 7.04074979 -2.5625 5.5625 C-2.29566406 4.73878906 -2.02882812 3.91507813 -1.75390625 3.06640625 C-1 1 -1 1 0 0 Z " fill="#D3D3D3" transform="translate(181,244)"/>
<path d="M0 0 C0.99 0.495 0.99 0.495 2 1 C2.8515625 3.72265625 2.8515625 3.72265625 3.625 7.0625 C3.88539063 8.16722656 4.14578125 9.27195313 4.4140625 10.41015625 C4.60742188 11.26480469 4.80078125 12.11945313 5 13 C4.01 13 3.02 13 2 13 C0.24252386 8.49646738 -0.19294408 4.82360189 0 0 Z " fill="#B6B6B6" transform="translate(148,233)"/>
<path d="M0 0 C0.33 0 0.66 0 1 0 C0.80743982 9.17286652 0.80743982 9.17286652 -2.5625 12.625 C-3.366875 13.07875 -4.17125 13.5325 -5 14 C-4.54636829 12.41531323 -4.08688548 10.83230076 -3.625 9.25 C-3.36976563 8.36828125 -3.11453125 7.4865625 -2.8515625 6.578125 C-2.0790066 4.23919428 -1.16374324 2.16557438 0 0 Z " fill="#C6C6C6" transform="translate(187,258)"/>
<path d="M0 0 C0.33 0 0.66 0 1 0 C1.33 2.97 1.66 5.94 2 9 C2.94875 8.95875 3.8975 8.9175 4.875 8.875 C8 9 8 9 10 11 C6.7 11 3.4 11 0 11 C0 7.37 0 3.74 0 0 Z " fill="#BEBEBE" transform="translate(187,304)"/>
<path d="M0 0 C0 3.63 0 7.26 0 11 C-2.50816459 8.49183541 -3.61410019 7.09162264 -5 4 C-1.125 0 -1.125 0 0 0 Z " fill="#EEEEEE" transform="translate(39,163)"/>
<path d="M0 0 C0.66 0.66 1.32 1.32 2 2 C1.53846154 8.46153846 1.53846154 8.46153846 -1 11 C-1.66 10.67 -2.32 10.34 -3 10 C-2.01 6.7 -1.02 3.4 0 0 Z " fill="#434343" transform="translate(300,76)"/>
<path d="M0 0 C2.51699845 2.51699845 3.10964078 4.57554146 4 8 C3.625 10.375 3.625 10.375 3 12 C2.67 11.01 2.34 10.02 2 9 C1.01 9.495 1.01 9.495 0 10 C-1.125 2.25 -1.125 2.25 0 0 Z " fill="#4E4E4E" transform="translate(314,86)"/>
<path d="M0 0 C2.18975773 3.28463659 2.99806563 6.20696275 4 10 C2.35 10.33 0.7 10.66 -1 11 C-0.34 10.67 0.32 10.34 1 10 C0.01 7.03 -0.98 4.06 -2 1 C-1.34 0.67 -0.68 0.34 0 0 Z " fill="#BDBDBD" transform="translate(117,284)"/>
<path d="M0 0 C0.33 0 0.66 0 1 0 C1.97040422 5.93024803 1.89316269 11.06390334 1 17 C0.01 17.33 -0.98 17.66 -2 18 C-1.34 12.06 -0.68 6.12 0 0 Z " fill="#BED1EE" transform="translate(444,167)"/>
<path d="M0 0 C3 1 3 1 4.75 3.9375 C5.1625 4.948125 5.575 5.95875 6 7 C5.67 7.66 5.34 8.32 5 9 C4.34 9 3.68 9 3 9 C0 3.375 0 3.375 0 0 Z " fill="#CBCBCB" transform="translate(98,170)"/>
<path d="M0 0 C0.66 1.32 1.32 2.64 2 4 C0.02 6.97 0.02 6.97 -2 10 C-2.33 9.34 -2.66 8.68 -3 8 C-3.66 7.67 -4.32 7.34 -5 7 C-3.35 4.69 -1.7 2.38 0 0 Z " fill="#CECECE" transform="translate(52,193)"/>
<path d="M0 0 C0.433125 0.598125 0.86625 1.19625 1.3125 1.8125 C2.89625381 3.99065003 2.89625381 3.99065003 4.6875 5.5625 C6 7 6 7 6 10 C5.01 10 4.02 10 3 10 C0.39749195 6.62637846 -0.36265043 4.23092172 0 0 Z " fill="#2C2C2C" transform="translate(142,262)"/>
<path d="M0 0 C0.66 0.33 1.32 0.66 2 1 C1.34 1.66 0.68 2.32 0 3 C1.65 3.33 3.3 3.66 5 4 C5 4.33 5 4.66 5 5 C1.04 5 -2.92 5 -7 5 C-4.7060466 3.27953495 -2.38585576 1.5905705 0 0 Z " fill="#A7A7A7" transform="translate(291,250)"/>
<path d="M0 0 C0.66 0.33 1.32 0.66 2 1 C-0.97 3.97 -3.94 6.94 -7 10 C-7 6.04435836 -5.59478606 4.89133304 -3 2 C-2.01 1.34 -1.02 0.68 0 0 Z " fill="#343434" transform="translate(266,49)"/>
<path d="M0 0 C0.66 1.32 1.32 2.64 2 4 C4.31 4 6.62 4 9 4 C6 6 6 6 3.9375 6.4375 C1.60942182 6.88776695 1.60942182 6.88776695 0 10 C0 6.7 0 3.4 0 0 Z " fill="#555555" transform="translate(148,17)"/>
<path d="M0 0 C0.66 0.33 1.32 0.66 2 1 C-0.64 3.64 -3.28 6.28 -6 9 C-6.33 8.34 -6.66 7.68 -7 7 C-4.78071806 4.09197539 -3.07030857 2.04687238 0 0 Z " fill="#272727" transform="translate(237,269)"/>
<path d="M0 0 C0.99 0.33 1.98 0.66 3 1 C1.73742767 2.17560179 0.46462916 3.34022865 -0.8125 4.5 C-1.87404297 5.47453125 -1.87404297 5.47453125 -2.95703125 6.46875 C-5 8 -5 8 -8 8 C-5.33333333 5.33333333 -2.66666667 2.66666667 0 0 Z " fill="#2B2B2B" transform="translate(262,242)"/>
<path d="M0 0 C-1.49097658 3.7952131 -3.75700849 5.61042731 -7 8 C-7 5 -7 5 -4.625 2.3125 C-2 0 -2 0 0 0 Z " fill="#888888" transform="translate(176,139)"/>
<path d="M0 0 C0.25 2.3125 0.25 2.3125 0 5 C-2 6.8125 -2 6.8125 -4 8 C-3.74438677 5.6568787 -3.40729228 3.32156597 -3 1 C-1 0 -1 0 0 0 Z " fill="#1A1A1A" transform="translate(191,259)"/>
<path d="M0 0 C2.97 0.33 5.94 0.66 9 1 C9 1.66 9 2.32 9 3 C2.84765625 2.4140625 2.84765625 2.4140625 1 2 C0.67 1.34 0.34 0.68 0 0 Z " fill="#FBFBFB" transform="translate(171,19)"/>
<path d="M0 0 C0.66 0.99 1.32 1.98 2 3 C0.02 5.97 0.02 5.97 -2 9 C-2.66 8.01 -3.32 7.02 -4 6 C-2.68 4.02 -1.36 2.04 0 0 Z " fill="#D4D4D4" transform="translate(242,284)"/>
<path d="M0 0 C2.52259061 1.97420135 2.9929808 2.96745642 3.6875 6.1875 C3.790625 7.115625 3.89375 8.04375 4 9 C0 4.5 0 4.5 0 0 Z " fill="#CFCFCF" transform="translate(121,216)"/>
<path d="M0 0 C2.13562754 2.13562754 2.63318342 3.06546739 3 6 C2.34 6.66 1.68 7.32 1 8 C-1 5 -1 5 -0.625 2.3125 C-0.41875 1.549375 -0.2125 0.78625 0 0 Z " fill="#A1A1A1" transform="translate(119,210)"/>
<path d="M0 0 C0.99 0.33 1.98 0.66 3 1 C3.33 3.31 3.66 5.62 4 8 C1.10067643 5.60490662 0.49831724 3.68754757 0 0 Z " fill="#E0E0E0" transform="translate(102,178)"/>
<path d="M0 0 C1.41377341 2.63904371 2.37240135 5.07120629 3 8 C2.01 8.33 1.02 8.66 0 9 C-1.10844919 5.67465243 -0.84454356 3.37817425 0 0 Z " fill="#393939" transform="translate(102,166)"/>
</svg>
